<?xml version="1.0" encoding="utf-8" standalone="no"?>
<!DOCTYPE svg PUBLIC "-//W3C//DTD SVG 1.1//EN"
  "http://www.w3.org/Graphics/SVG/1.1/DTD/svg11.dtd">
<svg height="504pt" version="1.1" viewBox="0 0 648 504" width="648pt" xmlns="http://www.w3.org/2000/svg" xmlns:xlink="http://www.w3.org/1999/xlink">
 <metadata>
  <rdf:RDF xmlns:cc="http://creativecommons.org/ns#" xmlns:dc="http://purl.org/dc/elements/1.1/" xmlns:rdf="http://www.w3.org/1999/02/22-rdf-syntax-ns#">
   <cc:Work>
    <dc:type rdf:resource="http://purl.org/dc/dcmitype/StillImage"/>
    <dc:date>2021-08-01T15:49:34.807632</dc:date>
    <dc:format>image/svg+xml</dc:format>
    <dc:creator>
     <cc:Agent>
      <dc:title>Matplotlib v3.4.2, https://matplotlib.org/</dc:title>
     </cc:Agent>
    </dc:creator>
   </cc:Work>
  </rdf:RDF>
 </metadata>
 <defs>
  <style type="text/css">*{stroke-linecap:butt;stroke-linejoin:round;}</style>
 </defs>
 <g id="figure_1">
  <g id="patch_1">
   <path d="M 0 504 
L 648 504 
L 648 0 
L 0 0 
z
" style="fill:#ffffff;"/>
  </g>
  <g id="axes_1">
   <g id="patch_2">
    <path d="M 142.25625 453.6 
L 376.14375 453.6 
L 376.14375 75.6 
L 142.25625 75.6 
z
" style="fill:#ffffff;"/>
   </g>
   <g id="matplotlib.axis_1">
    <g id="xtick_1">
     <g id="line2d_1">
      <defs>
       <path d="M 0 0 
L 0 3.5 
" id="m1f9310e7bb" style="stroke:#000000;stroke-width:0.8;"/>
      </defs>
      <g>
       <use style="stroke:#000000;stroke-width:0.8;" x="152.8875" xlink:href="#m1f9310e7bb" y="453.6"/>
      </g>
     </g>
     <g id="text_1">
      <text style="font-family:DejaVu Sans;font-size:14.4px;font-stretch:normal;font-style:normal;font-weight:normal;text-anchor:middle;" transform="rotate(-0, 152.8875, 471.54175)" x="152.8875" y="471.54175">0</text>
     </g>
    </g>
    <g id="xtick_2">
     <g id="line2d_2">
      <g>
       <use style="stroke:#000000;stroke-width:0.8;" x="200.1375" xlink:href="#m1f9310e7bb" y="453.6"/>
      </g>
     </g>
     <g id="text_2">
      <text style="font-family:DejaVu Sans;font-size:14.4px;font-stretch:normal;font-style:normal;font-weight:normal;text-anchor:middle;" transform="rotate(-0, 200.1375, 471.54175)" x="200.1375" y="471.54175">20</text>
     </g>
    </g>
    <g id="xtick_3">
     <g id="line2d_3">
      <g>
       <use style="stroke:#000000;stroke-width:0.8;" x="271.0125" xlink:href="#m1f9310e7bb" y="453.6"/>
      </g>
     </g>
     <g id="text_3">
      <text style="font-family:DejaVu Sans;font-size:14.4px;font-stretch:normal;font-style:normal;font-weight:normal;text-anchor:middle;" transform="rotate(-0, 271.0125, 471.54175)" x="271.0125" y="471.54175">50</text>
     </g>
    </g>
    <g id="xtick_4">
     <g id="line2d_4">
      <g>
       <use style="stroke:#000000;stroke-width:0.8;" x="365.5125" xlink:href="#m1f9310e7bb" y="453.6"/>
      </g>
     </g>
     <g id="text_4">
      <text style="font-family:DejaVu Sans;font-size:14.4px;font-stretch:normal;font-style:normal;font-weight:normal;text-anchor:middle;" transform="rotate(-0, 365.5125, 471.54175)" x="365.5125" y="471.54175">90</text>
     </g>
    </g>
    <g id="text_5">
     <text style="font-family:DejaVu Sans;font-size:17.28px;font-stretch:normal;font-style:normal;font-weight:normal;text-anchor:middle;" transform="rotate(-0, 259.2, 491.6666)" x="259.2" y="491.6666">Percentage of Cue-Conflict in training</text>
    </g>
   </g>
   <g id="matplotlib.axis_2">
    <g id="ytick_1">
     <g id="line2d_5">
      <defs>
       <path d="M 0 0 
L -3.5 0 
" id="m8aece3c820" style="stroke:#000000;stroke-width:0.8;"/>
      </defs>
      <g>
       <use style="stroke:#000000;stroke-width:0.8;" x="142.25625" xlink:href="#m8aece3c820" y="453.6"/>
      </g>
     </g>
     <g id="text_6">
      <text style="font-family:DejaVu Sans;font-size:14.4px;font-stretch:normal;font-style:normal;font-weight:normal;text-anchor:end;" transform="rotate(-0, 135.25625, 459.070875)" x="135.25625" y="459.070875">0.8</text>
     </g>
    </g>
    <g id="ytick_2">
     <g id="line2d_6">
      <g>
       <use style="stroke:#000000;stroke-width:0.8;" x="142.25625" xlink:href="#m8aece3c820" y="359.1"/>
      </g>
     </g>
     <g id="text_7">
      <text style="font-family:DejaVu Sans;font-size:14.4px;font-stretch:normal;font-style:normal;font-weight:normal;text-anchor:end;" transform="rotate(-0, 135.25625, 364.570875)" x="135.25625" y="364.570875">1.0</text>
     </g>
    </g>
    <g id="ytick_3">
     <g id="line2d_7">
      <g>
       <use style="stroke:#000000;stroke-width:0.8;" x="142.25625" xlink:href="#m8aece3c820" y="264.6"/>
      </g>
     </g>
     <g id="text_8">
      <text style="font-family:DejaVu Sans;font-size:14.4px;font-stretch:normal;font-style:normal;font-weight:normal;text-anchor:end;" transform="rotate(-0, 135.25625, 270.070875)" x="135.25625" y="270.070875">1.2</text>
     </g>
    </g>
    <g id="ytick_4">
     <g id="line2d_8">
      <g>
       <use style="stroke:#000000;stroke-width:0.8;" x="142.25625" xlink:href="#m8aece3c820" y="170.1"/>
      </g>
     </g>
     <g id="text_9">
      <text style="font-family:DejaVu Sans;font-size:14.4px;font-stretch:normal;font-style:normal;font-weight:normal;text-anchor:end;" transform="rotate(-0, 135.25625, 175.570875)" x="135.25625" y="175.570875">1.4</text>
     </g>
    </g>
    <g id="ytick_5">
     <g id="line2d_9">
      <g>
       <use style="stroke:#000000;stroke-width:0.8;" x="142.25625" xlink:href="#m8aece3c820" y="75.6"/>
      </g>
     </g>
     <g id="text_10">
      <text style="font-family:DejaVu Sans;font-size:14.4px;font-stretch:normal;font-style:normal;font-weight:normal;text-anchor:end;" transform="rotate(-0, 135.25625, 81.070875)" x="135.25625" y="81.070875">1.6</text>
     </g>
    </g>
    <g id="text_11">
     <text style="font-family:DejaVu Sans;font-size:17.28px;font-stretch:normal;font-style:normal;font-weight:normal;text-anchor:middle;" transform="rotate(-90, 104.76205, 264.6)" x="104.76205" y="264.6">I1 Relative to Naive Decoder</text>
    </g>
   </g>
   <g id="line2d_10">
    <path clip-path="url(#p779e45b7e6)" d="M 152.8875 359.1 
L 200.1375 173.19081 
L 271.0125 230.457435 
L 365.5125 155.517325 
" style="fill:none;stroke:#ff0000;stroke-linecap:square;stroke-width:1.5;"/>
    <defs>
     <path d="M 0 3 
C 0.795609 3 1.55874 2.683901 2.12132 2.12132 
C 2.683901 1.55874 3 0.795609 3 0 
C 3 -0.795609 2.683901 -1.55874 2.12132 -2.12132 
C 1.55874 -2.683901 0.795609 -3 0 -3 
C -0.795609 -3 -1.55874 -2.683901 -2.12132 -2.12132 
C -2.683901 -1.55874 -3 -0.795609 -3 0 
C -3 0.795609 -2.683901 1.55874 -2.12132 2.12132 
C -1.55874 2.683901 -0.795609 3 0 3 
z
" id="m20c963f621" style="stroke:#ff0000;"/>
    </defs>
    <g clip-path="url(#p779e45b7e6)">
     <use style="fill:#ff0000;stroke:#ff0000;" x="152.8875" xlink:href="#m20c963f621" y="359.1"/>
     <use style="fill:#ff0000;stroke:#ff0000;" x="200.1375" xlink:href="#m20c963f621" y="173.19081"/>
     <use style="fill:#ff0000;stroke:#ff0000;" x="271.0125" xlink:href="#m20c963f621" y="230.457435"/>
     <use style="fill:#ff0000;stroke:#ff0000;" x="365.5125" xlink:href="#m20c963f621" y="155.517325"/>
    </g>
   </g>
   <g id="line2d_11">
    <path clip-path="url(#p779e45b7e6)" d="M 152.8875 359.1 
L 200.1375 292.820284 
L 271.0125 315.725998 
L 365.5125 288.989218 
" style="fill:none;stroke:#7fffd4;stroke-linecap:square;stroke-width:1.5;"/>
    <defs>
     <path d="M 0 3 
C 0.795609 3 1.55874 2.683901 2.12132 2.12132 
C 2.683901 1.55874 3 0.795609 3 0 
C 3 -0.795609 2.683901 -1.55874 2.12132 -2.12132 
C 1.55874 -2.683901 0.795609 -3 0 -3 
C -0.795609 -3 -1.55874 -2.683901 -2.12132 -2.12132 
C -2.683901 -1.55874 -3 -0.795609 -3 0 
C -3 0.795609 -2.683901 1.55874 -2.12132 2.12132 
C -1.55874 2.683901 -0.795609 3 0 3 
z
" id="me03ad4d4a2" style="stroke:#7fffd4;"/>
    </defs>
    <g clip-path="url(#p779e45b7e6)">
     <use style="fill:#7fffd4;stroke:#7fffd4;" x="152.8875" xlink:href="#me03ad4d4a2" y="359.1"/>
     <use style="fill:#7fffd4;stroke:#7fffd4;" x="200.1375" xlink:href="#me03ad4d4a2" y="292.820284"/>
     <use style="fill:#7fffd4;stroke:#7fffd4;" x="271.0125" xlink:href="#me03ad4d4a2" y="315.725998"/>
     <use style="fill:#7fffd4;stroke:#7fffd4;" x="365.5125" xlink:href="#me03ad4d4a2" y="288.989218"/>
    </g>
   </g>
   <g id="line2d_12">
    <path clip-path="url(#p779e45b7e6)" d="M 152.8875 359.1 
L 200.1375 293.390058 
L 271.0125 336.795925 
L 365.5125 297.296716 
" style="fill:none;stroke:#40e0d0;stroke-linecap:square;stroke-width:1.5;"/>
    <defs>
     <path d="M 0 3 
C 0.795609 3 1.55874 2.683901 2.12132 2.12132 
C 2.683901 1.55874 3 0.795609 3 0 
C 3 -0.795609 2.683901 -1.55874 2.12132 -2.12132 
C 1.55874 -2.683901 0.795609 -3 0 -3 
C -0.795609 -3 -1.55874 -2.683901 -2.12132 -2.12132 
C -2.683901 -1.55874 -3 -0.795609 -3 0 
C -3 0.795609 -2.683901 1.55874 -2.12132 2.12132 
C -1.55874 2.683901 -0.795609 3 0 3 
z
" id="m39318bdea1" style="stroke:#40e0d0;"/>
    </defs>
    <g clip-path="url(#p779e45b7e6)">
     <use style="fill:#40e0d0;stroke:#40e0d0;" x="152.8875" xlink:href="#m39318bdea1" y="359.1"/>
     <use style="fill:#40e0d0;stroke:#40e0d0;" x="200.1375" xlink:href="#m39318bdea1" y="293.390058"/>
     <use style="fill:#40e0d0;stroke:#40e0d0;" x="271.0125" xlink:href="#m39318bdea1" y="336.795925"/>
     <use style="fill:#40e0d0;stroke:#40e0d0;" x="365.5125" xlink:href="#m39318bdea1" y="297.296716"/>
    </g>
   </g>
   <g id="line2d_13">
    <path clip-path="url(#p779e45b7e6)" d="M 152.8875 359.1 
L 200.1375 279.6385 
L 271.0125 295.818772 
L 365.5125 285.505221 
" style="fill:none;stroke:#20b2aa;stroke-linecap:square;stroke-width:1.5;"/>
    <defs>
     <path d="M 0 3 
C 0.795609 3 1.55874 2.683901 2.12132 2.12132 
C 2.683901 1.55874 3 0.795609 3 0 
C 3 -0.795609 2.683901 -1.55874 2.12132 -2.12132 
C 1.55874 -2.683901 0.795609 -3 0 -3 
C -0.795609 -3 -1.55874 -2.683901 -2.12132 -2.12132 
C -2.683901 -1.55874 -3 -0.795609 -3 0 
C -3 0.795609 -2.683901 1.55874 -2.12132 2.12132 
C -1.55874 2.683901 -0.795609 3 0 3 
z
" id="m421afbdf74" style="stroke:#20b2aa;"/>
    </defs>
    <g clip-path="url(#p779e45b7e6)">
     <use style="fill:#20b2aa;stroke:#20b2aa;" x="152.8875" xlink:href="#m421afbdf74" y="359.1"/>
     <use style="fill:#20b2aa;stroke:#20b2aa;" x="200.1375" xlink:href="#m421afbdf74" y="279.6385"/>
     <use style="fill:#20b2aa;stroke:#20b2aa;" x="271.0125" xlink:href="#m421afbdf74" y="295.818772"/>
     <use style="fill:#20b2aa;stroke:#20b2aa;" x="365.5125" xlink:href="#m421afbdf74" y="285.505221"/>
    </g>
   </g>
   <g id="line2d_14">
    <path clip-path="url(#p779e45b7e6)" d="M 152.8875 359.1 
L 200.1375 285.395541 
L 271.0125 300.543479 
L 365.5125 279.218135 
" style="fill:none;stroke:#48d1cc;stroke-linecap:square;stroke-width:1.5;"/>
    <defs>
     <path d="M 0 3 
C 0.795609 3 1.55874 2.683901 2.12132 2.12132 
C 2.683901 1.55874 3 0.795609 3 0 
C 3 -0.795609 2.683901 -1.55874 2.12132 -2.12132 
C 1.55874 -2.683901 0.795609 -3 0 -3 
C -0.795609 -3 -1.55874 -2.683901 -2.12132 -2.12132 
C -2.683901 -1.55874 -3 -0.795609 -3 0 
C -3 0.795609 -2.683901 1.55874 -2.12132 2.12132 
C -1.55874 2.683901 -0.795609 3 0 3 
z
" id="me0bdfea1ca" style="stroke:#48d1cc;"/>
    </defs>
    <g clip-path="url(#p779e45b7e6)">
     <use style="fill:#48d1cc;stroke:#48d1cc;" x="152.8875" xlink:href="#me0bdfea1ca" y="359.1"/>
     <use style="fill:#48d1cc;stroke:#48d1cc;" x="200.1375" xlink:href="#me0bdfea1ca" y="285.395541"/>
     <use style="fill:#48d1cc;stroke:#48d1cc;" x="271.0125" xlink:href="#me0bdfea1ca" y="300.543479"/>
     <use style="fill:#48d1cc;stroke:#48d1cc;" x="365.5125" xlink:href="#me0bdfea1ca" y="279.218135"/>
    </g>
   </g>
   <g id="line2d_15">
    <path clip-path="url(#p779e45b7e6)" d="M 152.8875 359.1 
L 200.1375 269.891685 
L 271.0125 286.098951 
L 365.5125 253.21658 
" style="fill:none;stroke:#ff00ff;stroke-linecap:square;stroke-width:1.5;"/>
    <defs>
     <path d="M 0 3 
C 0.795609 3 1.55874 2.683901 2.12132 2.12132 
C 2.683901 1.55874 3 0.795609 3 0 
C 3 -0.795609 2.683901 -1.55874 2.12132 -2.12132 
C 1.55874 -2.683901 0.795609 -3 0 -3 
C -0.795609 -3 -1.55874 -2.683901 -2.12132 -2.12132 
C -2.683901 -1.55874 -3 -0.795609 -3 0 
C -3 0.795609 -2.683901 1.55874 -2.12132 2.12132 
C -1.55874 2.683901 -0.795609 3 0 3 
z
" id="mf1986e64ce" style="stroke:#ff00ff;"/>
    </defs>
    <g clip-path="url(#p779e45b7e6)">
     <use style="fill:#ff00ff;stroke:#ff00ff;" x="152.8875" xlink:href="#mf1986e64ce" y="359.1"/>
     <use style="fill:#ff00ff;stroke:#ff00ff;" x="200.1375" xlink:href="#mf1986e64ce" y="269.891685"/>
     <use style="fill:#ff00ff;stroke:#ff00ff;" x="271.0125" xlink:href="#mf1986e64ce" y="286.098951"/>
     <use style="fill:#ff00ff;stroke:#ff00ff;" x="365.5125" xlink:href="#mf1986e64ce" y="253.21658"/>
    </g>
   </g>
   <g id="line2d_16">
    <path clip-path="url(#p779e45b7e6)" d="M 152.8875 359.1 
L 200.1375 231.804903 
L 271.0125 244.673231 
L 365.5125 200.114574 
" style="fill:none;stroke:#da70d6;stroke-linecap:square;stroke-width:1.5;"/>
    <defs>
     <path d="M 0 3 
C 0.795609 3 1.55874 2.683901 2.12132 2.12132 
C 2.683901 1.55874 3 0.795609 3 0 
C 3 -0.795609 2.683901 -1.55874 2.12132 -2.12132 
C 1.55874 -2.683901 0.795609 -3 0 -3 
C -0.795609 -3 -1.55874 -2.683901 -2.12132 -2.12132 
C -2.683901 -1.55874 -3 -0.795609 -3 0 
C -3 0.795609 -2.683901 1.55874 -2.12132 2.12132 
C -1.55874 2.683901 -0.795609 3 0 3 
z
" id="m500d69e102" style="stroke:#da70d6;"/>
    </defs>
    <g clip-path="url(#p779e45b7e6)">
     <use style="fill:#da70d6;stroke:#da70d6;" x="152.8875" xlink:href="#m500d69e102" y="359.1"/>
     <use style="fill:#da70d6;stroke:#da70d6;" x="200.1375" xlink:href="#m500d69e102" y="231.804903"/>
     <use style="fill:#da70d6;stroke:#da70d6;" x="271.0125" xlink:href="#m500d69e102" y="244.673231"/>
     <use style="fill:#da70d6;stroke:#da70d6;" x="365.5125" xlink:href="#m500d69e102" y="200.114574"/>
    </g>
   </g>
   <g id="line2d_17">
    <path clip-path="url(#p779e45b7e6)" d="M 152.8875 359.1 
L 200.1375 269.273711 
L 271.0125 263.802578 
L 365.5125 245.137419 
" style="fill:none;stroke:#c71585;stroke-linecap:square;stroke-width:1.5;"/>
    <defs>
     <path d="M 0 3 
C 0.795609 3 1.55874 2.683901 2.12132 2.12132 
C 2.683901 1.55874 3 0.795609 3 0 
C 3 -0.795609 2.683901 -1.55874 2.12132 -2.12132 
C 1.55874 -2.683901 0.795609 -3 0 -3 
C -0.795609 -3 -1.55874 -2.683901 -2.12132 -2.12132 
C -2.683901 -1.55874 -3 -0.795609 -3 0 
C -3 0.795609 -2.683901 1.55874 -2.12132 2.12132 
C -1.55874 2.683901 -0.795609 3 0 3 
z
" id="m92a8a43ee2" style="stroke:#c71585;"/>
    </defs>
    <g clip-path="url(#p779e45b7e6)">
     <use style="fill:#c71585;stroke:#c71585;" x="152.8875" xlink:href="#m92a8a43ee2" y="359.1"/>
     <use style="fill:#c71585;stroke:#c71585;" x="200.1375" xlink:href="#m92a8a43ee2" y="269.273711"/>
     <use style="fill:#c71585;stroke:#c71585;" x="271.0125" xlink:href="#m92a8a43ee2" y="263.802578"/>
     <use style="fill:#c71585;stroke:#c71585;" x="365.5125" xlink:href="#m92a8a43ee2" y="245.137419"/>
    </g>
   </g>
   <g id="line2d_18">
    <path clip-path="url(#p779e45b7e6)" d="M 152.8875 359.1 
L 200.1375 282.75187 
L 271.0125 307.478362 
L 365.5125 255.412522 
" style="fill:none;stroke:#ff1493;stroke-linecap:square;stroke-width:1.5;"/>
    <defs>
     <path d="M 0 3 
C 0.795609 3 1.55874 2.683901 2.12132 2.12132 
C 2.683901 1.55874 3 0.795609 3 0 
C 3 -0.795609 2.683901 -1.55874 2.12132 -2.12132 
C 1.55874 -2.683901 0.795609 -3 0 -3 
C -0.795609 -3 -1.55874 -2.683901 -2.12132 -2.12132 
C -2.683901 -1.55874 -3 -0.795609 -3 0 
C -3 0.795609 -2.683901 1.55874 -2.12132 2.12132 
C -1.55874 2.683901 -0.795609 3 0 3 
z
" id="mc2d06084a3" style="stroke:#ff1493;"/>
    </defs>
    <g clip-path="url(#p779e45b7e6)">
     <use style="fill:#ff1493;stroke:#ff1493;" x="152.8875" xlink:href="#mc2d06084a3" y="359.1"/>
     <use style="fill:#ff1493;stroke:#ff1493;" x="200.1375" xlink:href="#mc2d06084a3" y="282.75187"/>
     <use style="fill:#ff1493;stroke:#ff1493;" x="271.0125" xlink:href="#mc2d06084a3" y="307.478362"/>
     <use style="fill:#ff1493;stroke:#ff1493;" x="365.5125" xlink:href="#mc2d06084a3" y="255.412522"/>
    </g>
   </g>
   <g id="line2d_19">
    <path clip-path="url(#p779e45b7e6)" d="M 152.8875 359.1 
L 200.1375 235.254814 
L 271.0125 253.181737 
L 365.5125 236.879807 
" style="fill:none;stroke:#ffd700;stroke-linecap:square;stroke-width:1.5;"/>
    <defs>
     <path d="M 0 3 
C 0.795609 3 1.55874 2.683901 2.12132 2.12132 
C 2.683901 1.55874 3 0.795609 3 0 
C 3 -0.795609 2.683901 -1.55874 2.12132 -2.12132 
C 1.55874 -2.683901 0.795609 -3 0 -3 
C -0.795609 -3 -1.55874 -2.683901 -2.12132 -2.12132 
C -2.683901 -1.55874 -3 -0.795609 -3 0 
C -3 0.795609 -2.683901 1.55874 -2.12132 2.12132 
C -1.55874 2.683901 -0.795609 3 0 3 
z
" id="m0da27e8192" style="stroke:#ffd700;"/>
    </defs>
    <g clip-path="url(#p779e45b7e6)">
     <use style="fill:#ffd700;stroke:#ffd700;" x="152.8875" xlink:href="#m0da27e8192" y="359.1"/>
     <use style="fill:#ffd700;stroke:#ffd700;" x="200.1375" xlink:href="#m0da27e8192" y="235.254814"/>
     <use style="fill:#ffd700;stroke:#ffd700;" x="271.0125" xlink:href="#m0da27e8192" y="253.181737"/>
     <use style="fill:#ffd700;stroke:#ffd700;" x="365.5125" xlink:href="#m0da27e8192" y="236.879807"/>
    </g>
   </g>
   <g id="line2d_20">
    <path clip-path="url(#p779e45b7e6)" d="M 152.8875 359.1 
L 200.1375 218.644797 
L 271.0125 241.252925 
L 365.5125 199.716889 
" style="fill:none;stroke:#daa520;stroke-linecap:square;stroke-width:1.5;"/>
    <defs>
     <path d="M 0 3 
C 0.795609 3 1.55874 2.683901 2.12132 2.12132 
C 2.683901 1.55874 3 0.795609 3 0 
C 3 -0.795609 2.683901 -1.55874 2.12132 -2.12132 
C 1.55874 -2.683901 0.795609 -3 0 -3 
C -0.795609 -3 -1.55874 -2.683901 -2.12132 -2.12132 
C -2.683901 -1.55874 -3 -0.795609 -3 0 
C -3 0.795609 -2.683901 1.55874 -2.12132 2.12132 
C -1.55874 2.683901 -0.795609 3 0 3 
z
" id="ma64536885a" style="stroke:#daa520;"/>
    </defs>
    <g clip-path="url(#p779e45b7e6)">
     <use style="fill:#daa520;stroke:#daa520;" x="152.8875" xlink:href="#ma64536885a" y="359.1"/>
     <use style="fill:#daa520;stroke:#daa520;" x="200.1375" xlink:href="#ma64536885a" y="218.644797"/>
     <use style="fill:#daa520;stroke:#daa520;" x="271.0125" xlink:href="#ma64536885a" y="241.252925"/>
     <use style="fill:#daa520;stroke:#daa520;" x="365.5125" xlink:href="#ma64536885a" y="199.716889"/>
    </g>
   </g>
   <g id="line2d_21">
    <path clip-path="url(#p779e45b7e6)" d="M 152.8875 359.1 
L 200.1375 257.459725 
L 271.0125 279.620854 
L 365.5125 245.182219 
" style="fill:none;stroke:#000000;stroke-linecap:square;stroke-width:1.5;"/>
    <defs>
     <path d="M 0 3 
C 0.795609 3 1.55874 2.683901 2.12132 2.12132 
C 2.683901 1.55874 3 0.795609 3 0 
C 3 -0.795609 2.683901 -1.55874 2.12132 -2.12132 
C 1.55874 -2.683901 0.795609 -3 0 -3 
C -0.795609 -3 -1.55874 -2.683901 -2.12132 -2.12132 
C -2.683901 -1.55874 -3 -0.795609 -3 0 
C -3 0.795609 -2.683901 1.55874 -2.12132 2.12132 
C -1.55874 2.683901 -0.795609 3 0 3 
z
" id="meae15bc918" style="stroke:#000000;"/>
    </defs>
    <g clip-path="url(#p779e45b7e6)">
     <use style="stroke:#000000;" x="152.8875" xlink:href="#meae15bc918" y="359.1"/>
     <use style="stroke:#000000;" x="200.1375" xlink:href="#meae15bc918" y="257.459725"/>
     <use style="stroke:#000000;" x="271.0125" xlink:href="#meae15bc918" y="279.620854"/>
     <use style="stroke:#000000;" x="365.5125" xlink:href="#meae15bc918" y="245.182219"/>
    </g>
   </g>
   <g id="line2d_22">
    <path clip-path="url(#p779e45b7e6)" d="M 142.25625 359.1 
L 376.14375 359.1 
" style="fill:none;stroke:#1f77b4;stroke-dasharray:5.55,2.4;stroke-dashoffset:0;stroke-width:1.5;"/>
   </g>
   <g id="patch_3">
    <path d="M 142.25625 453.6 
L 142.25625 75.6 
" style="fill:none;stroke:#000000;stroke-linecap:square;stroke-linejoin:miter;stroke-width:0.8;"/>
   </g>
   <g id="patch_4">
    <path d="M 142.25625 453.6 
L 376.14375 453.6 
" style="fill:none;stroke:#000000;stroke-linecap:square;stroke-linejoin:miter;stroke-width:0.8;"/>
   </g>
   <g id="legend_1">
    <g id="patch_5">
     <path d="M 390.718125 333.558 
L 531.406125 333.558 
Q 534.286125 333.558 534.286125 330.678 
L 534.286125 78.48 
Q 534.286125 75.6 531.406125 75.6 
L 390.718125 75.6 
Q 387.838125 75.6 387.838125 78.48 
L 387.838125 330.678 
Q 387.838125 333.558 390.718125 333.558 
z
" style="fill:#ffffff;opacity:0.8;stroke:#cccccc;stroke-linejoin:miter;"/>
    </g>
    <g id="line2d_23">
     <path d="M 393.598125 87.26175 
L 422.398125 87.26175 
" style="fill:none;stroke:#ff0000;stroke-linecap:square;stroke-width:1.5;"/>
    </g>
    <g id="line2d_24">
     <g>
      <use style="fill:#ff0000;stroke:#ff0000;" x="407.998125" xlink:href="#m20c963f621" y="87.26175"/>
     </g>
    </g>
    <g id="text_12">
     <text style="font-family:DejaVu Sans;font-size:14.4px;font-stretch:normal;font-style:normal;font-weight:normal;text-anchor:start;" transform="rotate(-0, 433.918125, 92.30175)" x="433.918125" y="92.30175">alexnet</text>
    </g>
    <g id="line2d_25">
     <path d="M 393.598125 108.39825 
L 422.398125 108.39825 
" style="fill:none;stroke:#7fffd4;stroke-linecap:square;stroke-width:1.5;"/>
    </g>
    <g id="line2d_26">
     <g>
      <use style="fill:#7fffd4;stroke:#7fffd4;" x="407.998125" xlink:href="#me03ad4d4a2" y="108.39825"/>
     </g>
    </g>
    <g id="text_13">
     <text style="font-family:DejaVu Sans;font-size:14.4px;font-stretch:normal;font-style:normal;font-weight:normal;text-anchor:start;" transform="rotate(-0, 433.918125, 113.43825)" x="433.918125" y="113.43825">resnet18</text>
    </g>
    <g id="line2d_27">
     <path d="M 393.598125 129.53475 
L 422.398125 129.53475 
" style="fill:none;stroke:#40e0d0;stroke-linecap:square;stroke-width:1.5;"/>
    </g>
    <g id="line2d_28">
     <g>
      <use style="fill:#40e0d0;stroke:#40e0d0;" x="407.998125" xlink:href="#m39318bdea1" y="129.53475"/>
     </g>
    </g>
    <g id="text_14">
     <text style="font-family:DejaVu Sans;font-size:14.4px;font-stretch:normal;font-style:normal;font-weight:normal;text-anchor:start;" transform="rotate(-0, 433.918125, 134.57475)" x="433.918125" y="134.57475">resnet34</text>
    </g>
    <g id="line2d_29">
     <path d="M 393.598125 150.67125 
L 422.398125 150.67125 
" style="fill:none;stroke:#20b2aa;stroke-linecap:square;stroke-width:1.5;"/>
    </g>
    <g id="line2d_30">
     <g>
      <use style="fill:#20b2aa;stroke:#20b2aa;" x="407.998125" xlink:href="#m421afbdf74" y="150.67125"/>
     </g>
    </g>
    <g id="text_15">
     <text style="font-family:DejaVu Sans;font-size:14.4px;font-stretch:normal;font-style:normal;font-weight:normal;text-anchor:start;" transform="rotate(-0, 433.918125, 155.71125)" x="433.918125" y="155.71125">resnet50</text>
    </g>
    <g id="line2d_31">
     <path d="M 393.598125 171.80775 
L 422.398125 171.80775 
" style="fill:none;stroke:#48d1cc;stroke-linecap:square;stroke-width:1.5;"/>
    </g>
    <g id="line2d_32">
     <g>
      <use style="fill:#48d1cc;stroke:#48d1cc;" x="407.998125" xlink:href="#me0bdfea1ca" y="171.80775"/>
     </g>
    </g>
    <g id="text_16">
     <text style="font-family:DejaVu Sans;font-size:14.4px;font-stretch:normal;font-style:normal;font-weight:normal;text-anchor:start;" transform="rotate(-0, 433.918125, 176.84775)" x="433.918125" y="176.84775">resnet101</text>
    </g>
    <g id="line2d_33">
     <path d="M 393.598125 192.94425 
L 422.398125 192.94425 
" style="fill:none;stroke:#ff00ff;stroke-linecap:square;stroke-width:1.5;"/>
    </g>
    <g id="line2d_34">
     <g>
      <use style="fill:#ff00ff;stroke:#ff00ff;" x="407.998125" xlink:href="#mf1986e64ce" y="192.94425"/>
     </g>
    </g>
    <g id="text_17">
     <text style="font-family:DejaVu Sans;font-size:14.4px;font-stretch:normal;font-style:normal;font-weight:normal;text-anchor:start;" transform="rotate(-0, 433.918125, 197.98425)" x="433.918125" y="197.98425">vgg11</text>
    </g>
    <g id="line2d_35">
     <path d="M 393.598125 214.08075 
L 422.398125 214.08075 
" style="fill:none;stroke:#da70d6;stroke-linecap:square;stroke-width:1.5;"/>
    </g>
    <g id="line2d_36">
     <g>
      <use style="fill:#da70d6;stroke:#da70d6;" x="407.998125" xlink:href="#m500d69e102" y="214.08075"/>
     </g>
    </g>
    <g id="text_18">
     <text style="font-family:DejaVu Sans;font-size:14.4px;font-stretch:normal;font-style:normal;font-weight:normal;text-anchor:start;" transform="rotate(-0, 433.918125, 219.12075)" x="433.918125" y="219.12075">vgg13</text>
    </g>
    <g id="line2d_37">
     <path d="M 393.598125 235.21725 
L 422.398125 235.21725 
" style="fill:none;stroke:#c71585;stroke-linecap:square;stroke-width:1.5;"/>
    </g>
    <g id="line2d_38">
     <g>
      <use style="fill:#c71585;stroke:#c71585;" x="407.998125" xlink:href="#m92a8a43ee2" y="235.21725"/>
     </g>
    </g>
    <g id="text_19">
     <text style="font-family:DejaVu Sans;font-size:14.4px;font-stretch:normal;font-style:normal;font-weight:normal;text-anchor:start;" transform="rotate(-0, 433.918125, 240.25725)" x="433.918125" y="240.25725">vgg16</text>
    </g>
    <g id="line2d_39">
     <path d="M 393.598125 256.35375 
L 422.398125 256.35375 
" style="fill:none;stroke:#ff1493;stroke-linecap:square;stroke-width:1.5;"/>
    </g>
    <g id="line2d_40">
     <g>
      <use style="fill:#ff1493;stroke:#ff1493;" x="407.998125" xlink:href="#mc2d06084a3" y="256.35375"/>
     </g>
    </g>
    <g id="text_20">
     <text style="font-family:DejaVu Sans;font-size:14.4px;font-stretch:normal;font-style:normal;font-weight:normal;text-anchor:start;" transform="rotate(-0, 433.918125, 261.39375)" x="433.918125" y="261.39375">vgg19</text>
    </g>
    <g id="line2d_41">
     <path d="M 393.598125 277.49025 
L 422.398125 277.49025 
" style="fill:none;stroke:#ffd700;stroke-linecap:square;stroke-width:1.5;"/>
    </g>
    <g id="line2d_42">
     <g>
      <use style="fill:#ffd700;stroke:#ffd700;" x="407.998125" xlink:href="#m0da27e8192" y="277.49025"/>
     </g>
    </g>
    <g id="text_21">
     <text style="font-family:DejaVu Sans;font-size:14.4px;font-stretch:normal;font-style:normal;font-weight:normal;text-anchor:start;" transform="rotate(-0, 433.918125, 282.53025)" x="433.918125" y="282.53025">densenet121</text>
    </g>
    <g id="line2d_43">
     <path d="M 393.598125 298.62675 
L 422.398125 298.62675 
" style="fill:none;stroke:#daa520;stroke-linecap:square;stroke-width:1.5;"/>
    </g>
    <g id="line2d_44">
     <g>
      <use style="fill:#daa520;stroke:#daa520;" x="407.998125" xlink:href="#ma64536885a" y="298.62675"/>
     </g>
    </g>
    <g id="text_22">
     <text style="font-family:DejaVu Sans;font-size:14.4px;font-stretch:normal;font-style:normal;font-weight:normal;text-anchor:start;" transform="rotate(-0, 433.918125, 303.66675)" x="433.918125" y="303.66675">densenet169</text>
    </g>
    <g id="line2d_45">
     <path d="M 393.598125 319.76325 
L 422.398125 319.76325 
" style="fill:none;stroke:#000000;stroke-linecap:square;stroke-width:1.5;"/>
    </g>
    <g id="line2d_46">
     <g>
      <use style="stroke:#000000;" x="407.998125" xlink:href="#meae15bc918" y="319.76325"/>
     </g>
    </g>
    <g id="text_23">
     <text style="font-family:DejaVu Sans;font-size:14.4px;font-stretch:normal;font-style:normal;font-weight:normal;text-anchor:start;" transform="rotate(-0, 433.918125, 324.80325)" x="433.918125" y="324.80325">Average</text>
    </g>
   </g>
  </g>
 </g>
 <defs>
  <clipPath id="p779e45b7e6">
   <rect height="378" width="233.8875" x="142.25625" y="75.6"/>
  </clipPath>
 </defs>
</svg>
