<?xml version="1.0" encoding="utf-8" standalone="no"?>
<!DOCTYPE svg PUBLIC "-//W3C//DTD SVG 1.1//EN"
  "http://www.w3.org/Graphics/SVG/1.1/DTD/svg11.dtd">
<svg height="504pt" version="1.1" viewBox="0 0 1440 504" width="1440pt" xmlns="http://www.w3.org/2000/svg" xmlns:xlink="http://www.w3.org/1999/xlink">
 <metadata>
  <rdf:RDF xmlns:cc="http://creativecommons.org/ns#" xmlns:dc="http://purl.org/dc/elements/1.1/" xmlns:rdf="http://www.w3.org/1999/02/22-rdf-syntax-ns#">
   <cc:Work>
    <dc:type rdf:resource="http://purl.org/dc/dcmitype/StillImage"/>
    <dc:date>2021-08-02T14:23:52.737748</dc:date>
    <dc:format>image/svg+xml</dc:format>
    <dc:creator>
     <cc:Agent>
      <dc:title>Matplotlib v3.4.2, https://matplotlib.org/</dc:title>
     </cc:Agent>
    </dc:creator>
   </cc:Work>
  </rdf:RDF>
 </metadata>
 <defs>
  <style type="text/css">*{stroke-linecap:butt;stroke-linejoin:round;}</style>
 </defs>
 <g id="figure_1">
  <g id="patch_1">
   <path d="M 0 504 
L 1440 504 
L 1440 0 
L 0 0 
z
" style="fill:#ffffff;"/>
  </g>
  <g id="axes_1">
   <g id="patch_2">
    <path d="M 543.96 448.56 
L 932.04 448.56 
L 932.04 60.48 
L 543.96 60.48 
z
" style="fill:#ffffff;"/>
   </g>
   <g id="PathCollection_1">
    <defs>
     <path d="M 0 3.535534 
C 0.937635 3.535534 1.836992 3.163008 2.5 2.5 
C 3.163008 1.836992 3.535534 0.937635 3.535534 0 
C 3.535534 -0.937635 3.163008 -1.836992 2.5 -2.5 
C 1.836992 -3.163008 0.937635 -3.535534 0 -3.535534 
C -0.937635 -3.535534 -1.836992 -3.163008 -2.5 -2.5 
C -3.163008 -1.836992 -3.535534 -0.937635 -3.535534 0 
C -3.535534 0.937635 -3.163008 1.836992 -2.5 2.5 
C -1.836992 3.163008 -0.937635 3.535534 0 3.535534 
z
" id="m59f83f04c8" style="stroke:#ff0000;"/>
    </defs>
    <g clip-path="url(#pef12b74026)">
     <use style="fill:#ff0000;stroke:#ff0000;" x="672.870174" xlink:href="#m59f83f04c8" y="334.141357"/>
    </g>
   </g>
   <g id="PathCollection_2">
    <defs>
     <path d="M 0 3.535534 
C 0.937635 3.535534 1.836992 3.163008 2.5 2.5 
C 3.163008 1.836992 3.535534 0.937635 3.535534 0 
C 3.535534 -0.937635 3.163008 -1.836992 2.5 -2.5 
C 1.836992 -3.163008 0.937635 -3.535534 0 -3.535534 
C -0.937635 -3.535534 -1.836992 -3.163008 -2.5 -2.5 
C -3.163008 -1.836992 -3.535534 -0.937635 -3.535534 0 
C -3.535534 0.937635 -3.163008 1.836992 -2.5 2.5 
C -1.836992 3.163008 -0.937635 3.535534 0 3.535534 
z
" id="m3584495896" style="stroke:#7fffd4;"/>
    </defs>
    <g clip-path="url(#pef12b74026)">
     <use style="fill:#7fffd4;stroke:#7fffd4;" x="676.744374" xlink:href="#m3584495896" y="288.03742"/>
    </g>
   </g>
   <g id="PathCollection_3">
    <defs>
     <path d="M 0 3.535534 
C 0.937635 3.535534 1.836992 3.163008 2.5 2.5 
C 3.163008 1.836992 3.535534 0.937635 3.535534 0 
C 3.535534 -0.937635 3.163008 -1.836992 2.5 -2.5 
C 1.836992 -3.163008 0.937635 -3.535534 0 -3.535534 
C -0.937635 -3.535534 -1.836992 -3.163008 -2.5 -2.5 
C -3.163008 -1.836992 -3.535534 -0.937635 -3.535534 0 
C -3.535534 0.937635 -3.163008 1.836992 -2.5 2.5 
C -1.836992 3.163008 -0.937635 3.535534 0 3.535534 
z
" id="ma82de58cfd" style="stroke:#40e0d0;"/>
    </defs>
    <g clip-path="url(#pef12b74026)">
     <use style="fill:#40e0d0;stroke:#40e0d0;" x="676.645597" xlink:href="#ma82de58cfd" y="286.685116"/>
    </g>
   </g>
   <g id="PathCollection_4">
    <defs>
     <path d="M 0 3.535534 
C 0.937635 3.535534 1.836992 3.163008 2.5 2.5 
C 3.163008 1.836992 3.535534 0.937635 3.535534 0 
C 3.535534 -0.937635 3.163008 -1.836992 2.5 -2.5 
C 1.836992 -3.163008 0.937635 -3.535534 0 -3.535534 
C -0.937635 -3.535534 -1.836992 -3.163008 -2.5 -2.5 
C -3.163008 -1.836992 -3.535534 -0.937635 -3.535534 0 
C -3.535534 0.937635 -3.163008 1.836992 -2.5 2.5 
C -1.836992 3.163008 -0.937635 3.535534 0 3.535534 
z
" id="mc1e9207fcc" style="stroke:#20b2aa;"/>
    </defs>
    <g clip-path="url(#pef12b74026)">
     <use style="fill:#20b2aa;stroke:#20b2aa;" x="667.638936" xlink:href="#mc1e9207fcc" y="302.792404"/>
    </g>
   </g>
   <g id="PathCollection_5">
    <defs>
     <path d="M 0 3.535534 
C 0.937635 3.535534 1.836992 3.163008 2.5 2.5 
C 3.163008 1.836992 3.535534 0.937635 3.535534 0 
C 3.535534 -0.937635 3.163008 -1.836992 2.5 -2.5 
C 1.836992 -3.163008 0.937635 -3.535534 0 -3.535534 
C -0.937635 -3.535534 -1.836992 -3.163008 -2.5 -2.5 
C -3.163008 -1.836992 -3.535534 -0.937635 -3.535534 0 
C -3.535534 0.937635 -3.163008 1.836992 -2.5 2.5 
C -1.836992 3.163008 -0.937635 3.535534 0 3.535534 
z
" id="m738c086f47" style="stroke:#48d1cc;"/>
    </defs>
    <g clip-path="url(#pef12b74026)">
     <use style="fill:#48d1cc;stroke:#48d1cc;" x="683.138996" xlink:href="#m738c086f47" y="281.544875"/>
    </g>
   </g>
   <g id="PathCollection_6">
    <defs>
     <path d="M 0 3.535534 
C 0.937635 3.535534 1.836992 3.163008 2.5 2.5 
C 3.163008 1.836992 3.535534 0.937635 3.535534 0 
C 3.535534 -0.937635 3.163008 -1.836992 2.5 -2.5 
C 1.836992 -3.163008 0.937635 -3.535534 0 -3.535534 
C -0.937635 -3.535534 -1.836992 -3.163008 -2.5 -2.5 
C -3.163008 -1.836992 -3.535534 -0.937635 -3.535534 0 
C -3.535534 0.937635 -3.163008 1.836992 -2.5 2.5 
C -1.836992 3.163008 -0.937635 3.535534 0 3.535534 
z
" id="m2a25018333" style="stroke:#ff00ff;"/>
    </defs>
    <g clip-path="url(#pef12b74026)">
     <use style="fill:#ff00ff;stroke:#ff00ff;" x="621.416212" xlink:href="#m2a25018333" y="310.441049"/>
    </g>
   </g>
   <g id="PathCollection_7">
    <defs>
     <path d="M 0 3.535534 
C 0.937635 3.535534 1.836992 3.163008 2.5 2.5 
C 3.163008 1.836992 3.535534 0.937635 3.535534 0 
C 3.535534 -0.937635 3.163008 -1.836992 2.5 -2.5 
C 1.836992 -3.163008 0.937635 -3.535534 0 -3.535534 
C -0.937635 -3.535534 -1.836992 -3.163008 -2.5 -2.5 
C -3.163008 -1.836992 -3.535534 -0.937635 -3.535534 0 
C -3.535534 0.937635 -3.163008 1.836992 -2.5 2.5 
C -1.836992 3.163008 -0.937635 3.535534 0 3.535534 
z
" id="m32b4368b0f" style="stroke:#da70d6;"/>
    </defs>
    <g clip-path="url(#pef12b74026)">
     <use style="fill:#da70d6;stroke:#da70d6;" x="608.203466" xlink:href="#m32b4368b0f" y="309.002074"/>
    </g>
   </g>
   <g id="PathCollection_8">
    <defs>
     <path d="M 0 3.535534 
C 0.937635 3.535534 1.836992 3.163008 2.5 2.5 
C 3.163008 1.836992 3.535534 0.937635 3.535534 0 
C 3.535534 -0.937635 3.163008 -1.836992 2.5 -2.5 
C 1.836992 -3.163008 0.937635 -3.535534 0 -3.535534 
C -0.937635 -3.535534 -1.836992 -3.163008 -2.5 -2.5 
C -3.163008 -1.836992 -3.535534 -0.937635 -3.535534 0 
C -3.535534 0.937635 -3.163008 1.836992 -2.5 2.5 
C -1.836992 3.163008 -0.937635 3.535534 0 3.535534 
z
" id="mb50e1960d3" style="stroke:#c71585;"/>
    </defs>
    <g clip-path="url(#pef12b74026)">
     <use style="fill:#c71585;stroke:#c71585;" x="606.007388" xlink:href="#mb50e1960d3" y="319.213257"/>
    </g>
   </g>
   <g id="PathCollection_9">
    <defs>
     <path d="M 0 3.535534 
C 0.937635 3.535534 1.836992 3.163008 2.5 2.5 
C 3.163008 1.836992 3.535534 0.937635 3.535534 0 
C 3.535534 -0.937635 3.163008 -1.836992 2.5 -2.5 
C 1.836992 -3.163008 0.937635 -3.535534 0 -3.535534 
C -0.937635 -3.535534 -1.836992 -3.163008 -2.5 -2.5 
C -3.163008 -1.836992 -3.535534 -0.937635 -3.535534 0 
C -3.535534 0.937635 -3.163008 1.836992 -2.5 2.5 
C -1.836992 3.163008 -0.937635 3.535534 0 3.535534 
z
" id="me616c09985" style="stroke:#ff1493;"/>
    </defs>
    <g clip-path="url(#pef12b74026)">
     <use style="fill:#ff1493;stroke:#ff1493;" x="611.764025" xlink:href="#me616c09985" y="312.037498"/>
    </g>
   </g>
   <g id="PathCollection_10">
    <defs>
     <path d="M 0 3.535534 
C 0.937635 3.535534 1.836992 3.163008 2.5 2.5 
C 3.163008 1.836992 3.535534 0.937635 3.535534 0 
C 3.535534 -0.937635 3.163008 -1.836992 2.5 -2.5 
C 1.836992 -3.163008 0.937635 -3.535534 0 -3.535534 
C -0.937635 -3.535534 -1.836992 -3.163008 -2.5 -2.5 
C -3.163008 -1.836992 -3.535534 -0.937635 -3.535534 0 
C -3.535534 0.937635 -3.163008 1.836992 -2.5 2.5 
C -1.836992 3.163008 -0.937635 3.535534 0 3.535534 
z
" id="m0ea9974051" style="stroke:#ffd700;"/>
    </defs>
    <g clip-path="url(#pef12b74026)">
     <use style="fill:#ffd700;stroke:#ffd700;" x="655.080409" xlink:href="#m0ea9974051" y="285.470573"/>
    </g>
   </g>
   <g id="PathCollection_11">
    <defs>
     <path d="M 0 3.535534 
C 0.937635 3.535534 1.836992 3.163008 2.5 2.5 
C 3.163008 1.836992 3.535534 0.937635 3.535534 0 
C 3.535534 -0.937635 3.163008 -1.836992 2.5 -2.5 
C 1.836992 -3.163008 0.937635 -3.535534 0 -3.535534 
C -0.937635 -3.535534 -1.836992 -3.163008 -2.5 -2.5 
C -3.163008 -1.836992 -3.535534 -0.937635 -3.535534 0 
C -3.535534 0.937635 -3.163008 1.836992 -2.5 2.5 
C -1.836992 3.163008 -0.937635 3.535534 0 3.535534 
z
" id="m10a3b84d84" style="stroke:#daa520;"/>
    </defs>
    <g clip-path="url(#pef12b74026)">
     <use style="fill:#daa520;stroke:#daa520;" x="674.48374" xlink:href="#m10a3b84d84" y="297.220348"/>
    </g>
   </g>
   <g id="matplotlib.axis_1">
    <g id="xtick_1">
     <g id="line2d_1">
      <defs>
       <path d="M 0 0 
L 0 3.5 
" id="m69fd332f6e" style="stroke:#000000;stroke-width:0.8;"/>
      </defs>
      <g>
       <use style="stroke:#000000;stroke-width:0.8;" x="543.96" xlink:href="#m69fd332f6e" y="448.56"/>
      </g>
     </g>
     <g id="text_1">
      <text style="font-family:DejaVu Sans;font-size:14.4px;font-stretch:normal;font-style:normal;font-weight:normal;text-anchor:middle;" transform="rotate(-0, 543.96, 466.50175)" x="543.96" y="466.50175">0.00</text>
     </g>
    </g>
    <g id="xtick_2">
     <g id="line2d_2">
      <g>
       <use style="stroke:#000000;stroke-width:0.8;" x="640.98" xlink:href="#m69fd332f6e" y="448.56"/>
      </g>
     </g>
     <g id="text_2">
      <text style="font-family:DejaVu Sans;font-size:14.4px;font-stretch:normal;font-style:normal;font-weight:normal;text-anchor:middle;" transform="rotate(-0, 640.98, 466.50175)" x="640.98" y="466.50175">0.25</text>
     </g>
    </g>
    <g id="xtick_3">
     <g id="line2d_3">
      <g>
       <use style="stroke:#000000;stroke-width:0.8;" x="738" xlink:href="#m69fd332f6e" y="448.56"/>
      </g>
     </g>
     <g id="text_3">
      <text style="font-family:DejaVu Sans;font-size:14.4px;font-stretch:normal;font-style:normal;font-weight:normal;text-anchor:middle;" transform="rotate(-0, 738, 466.50175)" x="738" y="466.50175">0.50</text>
     </g>
    </g>
    <g id="xtick_4">
     <g id="line2d_4">
      <g>
       <use style="stroke:#000000;stroke-width:0.8;" x="835.02" xlink:href="#m69fd332f6e" y="448.56"/>
      </g>
     </g>
     <g id="text_4">
      <text style="font-family:DejaVu Sans;font-size:14.4px;font-stretch:normal;font-style:normal;font-weight:normal;text-anchor:middle;" transform="rotate(-0, 835.02, 466.50175)" x="835.02" y="466.50175">0.75</text>
     </g>
    </g>
    <g id="xtick_5">
     <g id="line2d_5">
      <g>
       <use style="stroke:#000000;stroke-width:0.8;" x="932.04" xlink:href="#m69fd332f6e" y="448.56"/>
      </g>
     </g>
     <g id="text_5">
      <text style="font-family:DejaVu Sans;font-size:14.4px;font-stretch:normal;font-style:normal;font-weight:normal;text-anchor:middle;" transform="rotate(-0, 932.04, 466.50175)" x="932.04" y="466.50175">1.00</text>
     </g>
    </g>
    <g id="text_6">
     <text style="font-family:DejaVu Sans;font-size:17.28px;font-stretch:normal;font-style:normal;font-weight:normal;text-anchor:middle;" transform="rotate(-0, 738, 486.6266)" x="738" y="486.6266">3 degree FOV</text>
    </g>
   </g>
   <g id="matplotlib.axis_2">
    <g id="ytick_1">
     <g id="line2d_6">
      <defs>
       <path d="M 0 0 
L -3.5 0 
" id="mc629c6bd81" style="stroke:#000000;stroke-width:0.8;"/>
      </defs>
      <g>
       <use style="stroke:#000000;stroke-width:0.8;" x="543.96" xlink:href="#mc629c6bd81" y="448.56"/>
      </g>
     </g>
     <g id="text_7">
      <text style="font-family:DejaVu Sans;font-size:14.4px;font-stretch:normal;font-style:normal;font-weight:normal;text-anchor:end;" transform="rotate(-0, 536.96, 454.030875)" x="536.96" y="454.030875">0.00</text>
     </g>
    </g>
    <g id="ytick_2">
     <g id="line2d_7">
      <g>
       <use style="stroke:#000000;stroke-width:0.8;" x="543.96" xlink:href="#mc629c6bd81" y="351.54"/>
      </g>
     </g>
     <g id="text_8">
      <text style="font-family:DejaVu Sans;font-size:14.4px;font-stretch:normal;font-style:normal;font-weight:normal;text-anchor:end;" transform="rotate(-0, 536.96, 357.010875)" x="536.96" y="357.010875">0.25</text>
     </g>
    </g>
    <g id="ytick_3">
     <g id="line2d_8">
      <g>
       <use style="stroke:#000000;stroke-width:0.8;" x="543.96" xlink:href="#mc629c6bd81" y="254.52"/>
      </g>
     </g>
     <g id="text_9">
      <text style="font-family:DejaVu Sans;font-size:14.4px;font-stretch:normal;font-style:normal;font-weight:normal;text-anchor:end;" transform="rotate(-0, 536.96, 259.990875)" x="536.96" y="259.990875">0.50</text>
     </g>
    </g>
    <g id="ytick_4">
     <g id="line2d_9">
      <g>
       <use style="stroke:#000000;stroke-width:0.8;" x="543.96" xlink:href="#mc629c6bd81" y="157.5"/>
      </g>
     </g>
     <g id="text_10">
      <text style="font-family:DejaVu Sans;font-size:14.4px;font-stretch:normal;font-style:normal;font-weight:normal;text-anchor:end;" transform="rotate(-0, 536.96, 162.970875)" x="536.96" y="162.970875">0.75</text>
     </g>
    </g>
    <g id="ytick_5">
     <g id="line2d_10">
      <g>
       <use style="stroke:#000000;stroke-width:0.8;" x="543.96" xlink:href="#mc629c6bd81" y="60.48"/>
      </g>
     </g>
     <g id="text_11">
      <text style="font-family:DejaVu Sans;font-size:14.4px;font-stretch:normal;font-style:normal;font-weight:normal;text-anchor:end;" transform="rotate(-0, 536.96, 65.950875)" x="536.96" y="65.950875">1.00</text>
     </g>
    </g>
    <g id="text_12">
     <text style="font-family:DejaVu Sans;font-size:17.28px;font-stretch:normal;font-style:normal;font-weight:normal;text-anchor:middle;" transform="rotate(-90, 497.3038, 254.52)" x="497.3038" y="254.52">8 degree FOV</text>
    </g>
   </g>
   <g id="LineCollection_1">
    <path clip-path="url(#pef12b74026)" d="M 661.717609 334.141357 
L 684.022739 334.141357 
" style="fill:none;stroke:#ff0000;stroke-width:1.5;"/>
   </g>
   <g id="LineCollection_2">
    <path clip-path="url(#pef12b74026)" d="M 672.870174 346.457338 
L 672.870174 321.825377 
" style="fill:none;stroke:#ff0000;stroke-width:1.5;"/>
   </g>
   <g id="LineCollection_3">
    <path clip-path="url(#pef12b74026)" d="M 665.034504 288.03742 
L 688.454245 288.03742 
" style="fill:none;stroke:#7fffd4;stroke-width:1.5;"/>
   </g>
   <g id="LineCollection_4">
    <path clip-path="url(#pef12b74026)" d="M 676.744374 298.634896 
L 676.744374 277.439944 
" style="fill:none;stroke:#7fffd4;stroke-width:1.5;"/>
   </g>
   <g id="LineCollection_5">
    <path clip-path="url(#pef12b74026)" d="M 663.814501 286.685116 
L 689.476692 286.685116 
" style="fill:none;stroke:#40e0d0;stroke-width:1.5;"/>
   </g>
   <g id="LineCollection_6">
    <path clip-path="url(#pef12b74026)" d="M 676.645597 296.155323 
L 676.645597 277.214909 
" style="fill:none;stroke:#40e0d0;stroke-width:1.5;"/>
   </g>
   <g id="LineCollection_7">
    <path clip-path="url(#pef12b74026)" d="M 656.543192 302.792404 
L 678.734679 302.792404 
" style="fill:none;stroke:#20b2aa;stroke-width:1.5;"/>
   </g>
   <g id="LineCollection_8">
    <path clip-path="url(#pef12b74026)" d="M 667.638936 311.818881 
L 667.638936 293.765927 
" style="fill:none;stroke:#20b2aa;stroke-width:1.5;"/>
   </g>
   <g id="LineCollection_9">
    <path clip-path="url(#pef12b74026)" d="M 672.442794 281.544875 
L 693.835198 281.544875 
" style="fill:none;stroke:#48d1cc;stroke-width:1.5;"/>
   </g>
   <g id="LineCollection_10">
    <path clip-path="url(#pef12b74026)" d="M 683.138996 290.447444 
L 683.138996 272.642305 
" style="fill:none;stroke:#48d1cc;stroke-width:1.5;"/>
   </g>
   <g id="LineCollection_11">
    <path clip-path="url(#pef12b74026)" d="M 609.65214 310.441049 
L 633.180283 310.441049 
" style="fill:none;stroke:#ff00ff;stroke-width:1.5;"/>
   </g>
   <g id="LineCollection_12">
    <path clip-path="url(#pef12b74026)" d="M 621.416212 322.287366 
L 621.416212 298.594731 
" style="fill:none;stroke:#ff00ff;stroke-width:1.5;"/>
   </g>
   <g id="LineCollection_13">
    <path clip-path="url(#pef12b74026)" d="M 595.095412 309.002074 
L 621.31152 309.002074 
" style="fill:none;stroke:#da70d6;stroke-width:1.5;"/>
   </g>
   <g id="LineCollection_14">
    <path clip-path="url(#pef12b74026)" d="M 608.203466 320.184701 
L 608.203466 297.819447 
" style="fill:none;stroke:#da70d6;stroke-width:1.5;"/>
   </g>
   <g id="LineCollection_15">
    <path clip-path="url(#pef12b74026)" d="M 593.841902 319.213257 
L 618.172874 319.213257 
" style="fill:none;stroke:#c71585;stroke-width:1.5;"/>
   </g>
   <g id="LineCollection_16">
    <path clip-path="url(#pef12b74026)" d="M 606.007388 329.872645 
L 606.007388 308.553869 
" style="fill:none;stroke:#c71585;stroke-width:1.5;"/>
   </g>
   <g id="LineCollection_17">
    <path clip-path="url(#pef12b74026)" d="M 599.066962 312.037498 
L 624.461087 312.037498 
" style="fill:none;stroke:#ff1493;stroke-width:1.5;"/>
   </g>
   <g id="LineCollection_18">
    <path clip-path="url(#pef12b74026)" d="M 611.764025 322.604123 
L 611.764025 301.470874 
" style="fill:none;stroke:#ff1493;stroke-width:1.5;"/>
   </g>
   <g id="LineCollection_19">
    <path clip-path="url(#pef12b74026)" d="M 643.115988 285.470573 
L 667.04483 285.470573 
" style="fill:none;stroke:#ffd700;stroke-width:1.5;"/>
   </g>
   <g id="LineCollection_20">
    <path clip-path="url(#pef12b74026)" d="M 655.080409 294.847567 
L 655.080409 276.09358 
" style="fill:none;stroke:#ffd700;stroke-width:1.5;"/>
   </g>
   <g id="LineCollection_21">
    <path clip-path="url(#pef12b74026)" d="M 663.094372 297.220348 
L 685.873108 297.220348 
" style="fill:none;stroke:#daa520;stroke-width:1.5;"/>
   </g>
   <g id="LineCollection_22">
    <path clip-path="url(#pef12b74026)" d="M 674.48374 306.297075 
L 674.48374 288.143622 
" style="fill:none;stroke:#daa520;stroke-width:1.5;"/>
   </g>
   <g id="line2d_11">
    <path clip-path="url(#pef12b74026)" d="M 543.96 448.56 
L 932.04 60.48 
" style="fill:none;stroke:#1f77b4;stroke-dasharray:5.55,2.4;stroke-dashoffset:0;stroke-width:1.5;"/>
   </g>
   <g id="line2d_12">
    <path clip-path="url(#pef12b74026)" d="M 672.870174 334.141357 
" style="fill:none;stroke:#ff0000;stroke-linecap:square;stroke-width:1.5;"/>
   </g>
   <g id="line2d_13">
    <path clip-path="url(#pef12b74026)" d="M 676.744374 288.03742 
" style="fill:none;stroke:#7fffd4;stroke-linecap:square;stroke-width:1.5;"/>
   </g>
   <g id="line2d_14">
    <path clip-path="url(#pef12b74026)" d="M 676.645597 286.685116 
" style="fill:none;stroke:#40e0d0;stroke-linecap:square;stroke-width:1.5;"/>
   </g>
   <g id="line2d_15">
    <path clip-path="url(#pef12b74026)" d="M 667.638936 302.792404 
" style="fill:none;stroke:#20b2aa;stroke-linecap:square;stroke-width:1.5;"/>
   </g>
   <g id="line2d_16">
    <path clip-path="url(#pef12b74026)" d="M 683.138996 281.544875 
" style="fill:none;stroke:#48d1cc;stroke-linecap:square;stroke-width:1.5;"/>
   </g>
   <g id="line2d_17">
    <path clip-path="url(#pef12b74026)" d="M 621.416212 310.441049 
" style="fill:none;stroke:#ff00ff;stroke-linecap:square;stroke-width:1.5;"/>
   </g>
   <g id="line2d_18">
    <path clip-path="url(#pef12b74026)" d="M 608.203466 309.002074 
" style="fill:none;stroke:#da70d6;stroke-linecap:square;stroke-width:1.5;"/>
   </g>
   <g id="line2d_19">
    <path clip-path="url(#pef12b74026)" d="M 606.007388 319.213257 
" style="fill:none;stroke:#c71585;stroke-linecap:square;stroke-width:1.5;"/>
   </g>
   <g id="line2d_20">
    <path clip-path="url(#pef12b74026)" d="M 611.764025 312.037498 
" style="fill:none;stroke:#ff1493;stroke-linecap:square;stroke-width:1.5;"/>
   </g>
   <g id="line2d_21">
    <path clip-path="url(#pef12b74026)" d="M 655.080409 285.470573 
" style="fill:none;stroke:#ffd700;stroke-linecap:square;stroke-width:1.5;"/>
   </g>
   <g id="line2d_22">
    <path clip-path="url(#pef12b74026)" d="M 674.48374 297.220348 
" style="fill:none;stroke:#daa520;stroke-linecap:square;stroke-width:1.5;"/>
   </g>
   <g id="patch_3">
    <path d="M 543.96 448.56 
L 543.96 60.48 
" style="fill:none;stroke:#000000;stroke-linecap:square;stroke-linejoin:miter;stroke-width:0.8;"/>
   </g>
   <g id="patch_4">
    <path d="M 543.96 448.56 
L 932.04 448.56 
" style="fill:none;stroke:#000000;stroke-linecap:square;stroke-linejoin:miter;stroke-width:0.8;"/>
   </g>
   <g id="legend_1">
    <g id="patch_5">
     <path d="M 954.324 297.3015 
L 1095.012 297.3015 
Q 1097.892 297.3015 1097.892 294.4215 
L 1097.892 63.36 
Q 1097.892 60.48 1095.012 60.48 
L 954.324 60.48 
Q 951.444 60.48 951.444 63.36 
L 951.444 294.4215 
Q 951.444 297.3015 954.324 297.3015 
z
" style="fill:#ffffff;opacity:0.8;stroke:#cccccc;stroke-linejoin:miter;"/>
    </g>
    <g id="PathCollection_12">
     <g>
      <use style="fill:#ff0000;stroke:#ff0000;" x="971.604" xlink:href="#m59f83f04c8" y="73.40175"/>
     </g>
    </g>
    <g id="text_13">
     <text style="font-family:DejaVu Sans;font-size:14.4px;font-stretch:normal;font-style:normal;font-weight:normal;text-anchor:start;" transform="rotate(-0, 997.524, 77.18175)" x="997.524" y="77.18175">alexnet</text>
    </g>
    <g id="PathCollection_13">
     <g>
      <use style="fill:#7fffd4;stroke:#7fffd4;" x="971.604" xlink:href="#m3584495896" y="94.53825"/>
     </g>
    </g>
    <g id="text_14">
     <text style="font-family:DejaVu Sans;font-size:14.4px;font-stretch:normal;font-style:normal;font-weight:normal;text-anchor:start;" transform="rotate(-0, 997.524, 98.31825)" x="997.524" y="98.31825">resnet18</text>
    </g>
    <g id="PathCollection_14">
     <g>
      <use style="fill:#40e0d0;stroke:#40e0d0;" x="971.604" xlink:href="#ma82de58cfd" y="115.67475"/>
     </g>
    </g>
    <g id="text_15">
     <text style="font-family:DejaVu Sans;font-size:14.4px;font-stretch:normal;font-style:normal;font-weight:normal;text-anchor:start;" transform="rotate(-0, 997.524, 119.45475)" x="997.524" y="119.45475">resnet34</text>
    </g>
    <g id="PathCollection_15">
     <g>
      <use style="fill:#20b2aa;stroke:#20b2aa;" x="971.604" xlink:href="#mc1e9207fcc" y="136.81125"/>
     </g>
    </g>
    <g id="text_16">
     <text style="font-family:DejaVu Sans;font-size:14.4px;font-stretch:normal;font-style:normal;font-weight:normal;text-anchor:start;" transform="rotate(-0, 997.524, 140.59125)" x="997.524" y="140.59125">resnet50</text>
    </g>
    <g id="PathCollection_16">
     <g>
      <use style="fill:#48d1cc;stroke:#48d1cc;" x="971.604" xlink:href="#m738c086f47" y="157.94775"/>
     </g>
    </g>
    <g id="text_17">
     <text style="font-family:DejaVu Sans;font-size:14.4px;font-stretch:normal;font-style:normal;font-weight:normal;text-anchor:start;" transform="rotate(-0, 997.524, 161.72775)" x="997.524" y="161.72775">resnet101</text>
    </g>
    <g id="PathCollection_17">
     <g>
      <use style="fill:#ff00ff;stroke:#ff00ff;" x="971.604" xlink:href="#m2a25018333" y="179.08425"/>
     </g>
    </g>
    <g id="text_18">
     <text style="font-family:DejaVu Sans;font-size:14.4px;font-stretch:normal;font-style:normal;font-weight:normal;text-anchor:start;" transform="rotate(-0, 997.524, 182.86425)" x="997.524" y="182.86425">vgg11</text>
    </g>
    <g id="PathCollection_18">
     <g>
      <use style="fill:#da70d6;stroke:#da70d6;" x="971.604" xlink:href="#m32b4368b0f" y="200.22075"/>
     </g>
    </g>
    <g id="text_19">
     <text style="font-family:DejaVu Sans;font-size:14.4px;font-stretch:normal;font-style:normal;font-weight:normal;text-anchor:start;" transform="rotate(-0, 997.524, 204.00075)" x="997.524" y="204.00075">vgg13</text>
    </g>
    <g id="PathCollection_19">
     <g>
      <use style="fill:#c71585;stroke:#c71585;" x="971.604" xlink:href="#mb50e1960d3" y="221.35725"/>
     </g>
    </g>
    <g id="text_20">
     <text style="font-family:DejaVu Sans;font-size:14.4px;font-stretch:normal;font-style:normal;font-weight:normal;text-anchor:start;" transform="rotate(-0, 997.524, 225.13725)" x="997.524" y="225.13725">vgg16</text>
    </g>
    <g id="PathCollection_20">
     <g>
      <use style="fill:#ff1493;stroke:#ff1493;" x="971.604" xlink:href="#me616c09985" y="242.49375"/>
     </g>
    </g>
    <g id="text_21">
     <text style="font-family:DejaVu Sans;font-size:14.4px;font-stretch:normal;font-style:normal;font-weight:normal;text-anchor:start;" transform="rotate(-0, 997.524, 246.27375)" x="997.524" y="246.27375">vgg19</text>
    </g>
    <g id="PathCollection_21">
     <g>
      <use style="fill:#ffd700;stroke:#ffd700;" x="971.604" xlink:href="#m0ea9974051" y="263.63025"/>
     </g>
    </g>
    <g id="text_22">
     <text style="font-family:DejaVu Sans;font-size:14.4px;font-stretch:normal;font-style:normal;font-weight:normal;text-anchor:start;" transform="rotate(-0, 997.524, 267.41025)" x="997.524" y="267.41025">densenet121</text>
    </g>
    <g id="PathCollection_22">
     <g>
      <use style="fill:#daa520;stroke:#daa520;" x="971.604" xlink:href="#m10a3b84d84" y="284.76675"/>
     </g>
    </g>
    <g id="text_23">
     <text style="font-family:DejaVu Sans;font-size:14.4px;font-stretch:normal;font-style:normal;font-weight:normal;text-anchor:start;" transform="rotate(-0, 997.524, 288.54675)" x="997.524" y="288.54675">densenet169</text>
    </g>
   </g>
  </g>
 </g>
 <defs>
  <clipPath id="pef12b74026">
   <rect height="388.08" width="388.08" x="543.96" y="60.48"/>
  </clipPath>
 </defs>
</svg>
