<?xml version="1.0" encoding="UTF-8" standalone="no"?>
<svg
   height="449.611175pt"
   version="1.1"
   viewBox="0 0 618.9563 449.611175"
   width="618.9563pt"
   id="svg41965"
   sodipodi:docname="kappavI1_silhouette.svg"
   inkscape:version="1.1 (c4e8f9e, 2021-05-24)"
   xmlns:inkscape="http://www.inkscape.org/namespaces/inkscape"
   xmlns:sodipodi="http://sodipodi.sourceforge.net/DTD/sodipodi-0.dtd"
   xmlns:xlink="http://www.w3.org/1999/xlink"
   xmlns="http://www.w3.org/2000/svg"
   xmlns:svg="http://www.w3.org/2000/svg"
   xmlns:rdf="http://www.w3.org/1999/02/22-rdf-syntax-ns#"
   xmlns:cc="http://creativecommons.org/ns#"
   xmlns:dc="http://purl.org/dc/elements/1.1/">
  <sodipodi:namedview
     id="namedview41967"
     pagecolor="#ffffff"
     bordercolor="#cccccc"
     borderopacity="1"
     inkscape:pageshadow="0"
     inkscape:pageopacity="1"
     inkscape:pagecheckerboard="0"
     inkscape:document-units="pt"
     showgrid="false"
     inkscape:zoom="0.92413183"
     inkscape:cx="412.81989"
     inkscape:cy="299.74078"
     inkscape:window-width="1296"
     inkscape:window-height="782"
     inkscape:window-x="0"
     inkscape:window-y="23"
     inkscape:window-maximized="0"
     inkscape:current-layer="matplotlib.axis_1" />
  <metadata
     id="metadata41554">
    <rdf:RDF>
      <cc:Work>
        <dc:type
           rdf:resource="http://purl.org/dc/dcmitype/StillImage" />
        <dc:date>2021-08-02T17:28:09.218793</dc:date>
        <dc:format>image/svg+xml</dc:format>
        <dc:creator>
          <cc:Agent>
            <dc:title>Matplotlib v3.4.2, https://matplotlib.org/</dc:title>
          </cc:Agent>
        </dc:creator>
      </cc:Work>
    </rdf:RDF>
  </metadata>
  <defs
     id="defs41558">
    <style
       type="text/css"
       id="style41556">*{stroke-linecap:butt;stroke-linejoin:round;}</style>
  </defs>
  <g
     id="figure_1">
    <g
       id="axes_1"
       transform="matrix(0.74506641,0,0,0.74506641,7.1939279,1.8949614)">
      <g
         id="patch_2">
        <path
           d="m 57.8243,400.75087 h 388.08 V 12.670875 h -388.08 z"
           style="fill:#ffffff"
           id="path41563" />
      </g>
      <g
         id="PathCollection_1">
        <defs
           id="defs41567">
          <path
             d="M 0,3.535534 C 0.937635,3.535534 1.836992,3.163008 2.5,2.5 3.163008,1.836992 3.535534,0.937635 3.535534,0 3.535534,-0.937635 3.163008,-1.836992 2.5,-2.5 1.836992,-3.163008 0.937635,-3.535534 0,-3.535534 c -0.937635,0 -1.836992,0.372526 -2.5,1.035534 -0.663008,0.663008 -1.035534,1.562365 -1.035534,2.5 0,0.937635 0.372526,1.836992 1.035534,2.5 0.663008,0.663008 1.562365,1.035534 2.5,1.035534 z"
             id="m5f83f32820"
             style="stroke:#ff0000" />
        </defs>
        <g
           clip-path="url(#p9fe9990e0f)"
           id="g41571">
          <use
             style="fill:#ff0000;stroke:#ff0000"
             x="121.64794"
             xlink:href="#m5f83f32820"
             y="131.84149"
             id="use41569"
             width="100%"
             height="100%" />
        </g>
      </g>
      <g
         id="PathCollection_2">
        <defs
           id="defs41575">
          <path
             d="M 0,3.535534 C 0.937635,3.535534 1.836992,3.163008 2.5,2.5 3.163008,1.836992 3.535534,0.937635 3.535534,0 3.535534,-0.937635 3.163008,-1.836992 2.5,-2.5 1.836992,-3.163008 0.937635,-3.535534 0,-3.535534 c -0.937635,0 -1.836992,0.372526 -2.5,1.035534 -0.663008,0.663008 -1.035534,1.562365 -1.035534,2.5 0,0.937635 0.372526,1.836992 1.035534,2.5 0.663008,0.663008 1.562365,1.035534 2.5,1.035534 z"
             id="mf8b3b5a545"
             style="stroke:#7fffd4" />
        </defs>
        <g
           clip-path="url(#p9fe9990e0f)"
           id="g41579">
          <use
             style="fill:#7fffd4;stroke:#7fffd4"
             x="178.39905"
             xlink:href="#mf8b3b5a545"
             y="116.5861"
             id="use41577"
             width="100%"
             height="100%" />
        </g>
      </g>
      <g
         id="PathCollection_3">
        <defs
           id="defs41583">
          <path
             d="M 0,3.535534 C 0.937635,3.535534 1.836992,3.163008 2.5,2.5 3.163008,1.836992 3.535534,0.937635 3.535534,0 3.535534,-0.937635 3.163008,-1.836992 2.5,-2.5 1.836992,-3.163008 0.937635,-3.535534 0,-3.535534 c -0.937635,0 -1.836992,0.372526 -2.5,1.035534 -0.663008,0.663008 -1.035534,1.562365 -1.035534,2.5 0,0.937635 0.372526,1.836992 1.035534,2.5 0.663008,0.663008 1.562365,1.035534 2.5,1.035534 z"
             id="mc1de8b8cf4"
             style="stroke:#40e0d0" />
        </defs>
        <g
           clip-path="url(#p9fe9990e0f)"
           id="g41587">
          <use
             style="fill:#40e0d0;stroke:#40e0d0"
             x="250.70932"
             xlink:href="#mc1de8b8cf4"
             y="40.044708"
             id="use41585"
             width="100%"
             height="100%" />
        </g>
      </g>
      <g
         id="PathCollection_4">
        <defs
           id="defs41591">
          <path
             d="M 0,3.535534 C 0.937635,3.535534 1.836992,3.163008 2.5,2.5 3.163008,1.836992 3.535534,0.937635 3.535534,0 3.535534,-0.937635 3.163008,-1.836992 2.5,-2.5 1.836992,-3.163008 0.937635,-3.535534 0,-3.535534 c -0.937635,0 -1.836992,0.372526 -2.5,1.035534 -0.663008,0.663008 -1.035534,1.562365 -1.035534,2.5 0,0.937635 0.372526,1.836992 1.035534,2.5 0.663008,0.663008 1.562365,1.035534 2.5,1.035534 z"
             id="ma2ff083730"
             style="stroke:#20b2aa" />
        </defs>
        <g
           clip-path="url(#p9fe9990e0f)"
           id="g41595">
          <use
             style="fill:#20b2aa;stroke:#20b2aa"
             x="263.38193"
             xlink:href="#ma2ff083730"
             y="48.937435"
             id="use41593"
             width="100%"
             height="100%" />
        </g>
      </g>
      <g
         id="PathCollection_5">
        <defs
           id="defs41599">
          <path
             d="M 0,3.535534 C 0.937635,3.535534 1.836992,3.163008 2.5,2.5 3.163008,1.836992 3.535534,0.937635 3.535534,0 3.535534,-0.937635 3.163008,-1.836992 2.5,-2.5 1.836992,-3.163008 0.937635,-3.535534 0,-3.535534 c -0.937635,0 -1.836992,0.372526 -2.5,1.035534 -0.663008,0.663008 -1.035534,1.562365 -1.035534,2.5 0,0.937635 0.372526,1.836992 1.035534,2.5 0.663008,0.663008 1.562365,1.035534 2.5,1.035534 z"
             id="mb8f0a8c9b9"
             style="stroke:#48d1cc" />
        </defs>
        <g
           clip-path="url(#p9fe9990e0f)"
           id="g41603">
          <use
             style="fill:#48d1cc;stroke:#48d1cc"
             x="247.9296"
             xlink:href="#mb8f0a8c9b9"
             y="56.819393"
             id="use41601"
             width="100%"
             height="100%" />
        </g>
      </g>
      <g
         id="PathCollection_6">
        <defs
           id="defs41607">
          <path
             d="M 0,3.535534 C 0.937635,3.535534 1.836992,3.163008 2.5,2.5 3.163008,1.836992 3.535534,0.937635 3.535534,0 3.535534,-0.937635 3.163008,-1.836992 2.5,-2.5 1.836992,-3.163008 0.937635,-3.535534 0,-3.535534 c -0.937635,0 -1.836992,0.372526 -2.5,1.035534 -0.663008,0.663008 -1.035534,1.562365 -1.035534,2.5 0,0.937635 0.372526,1.836992 1.035534,2.5 0.663008,0.663008 1.562365,1.035534 2.5,1.035534 z"
             id="maaf49dc27c"
             style="stroke:#ff00ff" />
        </defs>
        <g
           clip-path="url(#p9fe9990e0f)"
           id="g41611">
          <use
             style="fill:#ff00ff;stroke:#ff00ff"
             x="142.83592"
             xlink:href="#maaf49dc27c"
             y="103.2686"
             id="use41609"
             width="100%"
             height="100%" />
        </g>
      </g>
      <g
         id="PathCollection_7">
        <defs
           id="defs41615">
          <path
             d="M 0,3.535534 C 0.937635,3.535534 1.836992,3.163008 2.5,2.5 3.163008,1.836992 3.535534,0.937635 3.535534,0 3.535534,-0.937635 3.163008,-1.836992 2.5,-2.5 1.836992,-3.163008 0.937635,-3.535534 0,-3.535534 c -0.937635,0 -1.836992,0.372526 -2.5,1.035534 -0.663008,0.663008 -1.035534,1.562365 -1.035534,2.5 0,0.937635 0.372526,1.836992 1.035534,2.5 0.663008,0.663008 1.562365,1.035534 2.5,1.035534 z"
             id="m1704bb869f"
             style="stroke:#da70d6" />
        </defs>
        <g
           clip-path="url(#p9fe9990e0f)"
           id="g41619">
          <use
             style="fill:#da70d6;stroke:#da70d6"
             x="192.26256"
             xlink:href="#m1704bb869f"
             y="80.07782"
             id="use41617"
             width="100%"
             height="100%" />
        </g>
      </g>
      <g
         id="PathCollection_8">
        <defs
           id="defs41623">
          <path
             d="M 0,3.535534 C 0.937635,3.535534 1.836992,3.163008 2.5,2.5 3.163008,1.836992 3.535534,0.937635 3.535534,0 3.535534,-0.937635 3.163008,-1.836992 2.5,-2.5 1.836992,-3.163008 0.937635,-3.535534 0,-3.535534 c -0.937635,0 -1.836992,0.372526 -2.5,1.035534 -0.663008,0.663008 -1.035534,1.562365 -1.035534,2.5 0,0.937635 0.372526,1.836992 1.035534,2.5 0.663008,0.663008 1.562365,1.035534 2.5,1.035534 z"
             id="mec20ebedbd"
             style="stroke:#c71585" />
        </defs>
        <g
           clip-path="url(#p9fe9990e0f)"
           id="g41627">
          <use
             style="fill:#c71585;stroke:#c71585"
             x="160.33844"
             xlink:href="#mec20ebedbd"
             y="100.69326"
             id="use41625"
             width="100%"
             height="100%" />
        </g>
      </g>
      <g
         id="PathCollection_9">
        <defs
           id="defs41631">
          <path
             d="M 0,3.535534 C 0.937635,3.535534 1.836992,3.163008 2.5,2.5 3.163008,1.836992 3.535534,0.937635 3.535534,0 3.535534,-0.937635 3.163008,-1.836992 2.5,-2.5 1.836992,-3.163008 0.937635,-3.535534 0,-3.535534 c -0.937635,0 -1.836992,0.372526 -2.5,1.035534 -0.663008,0.663008 -1.035534,1.562365 -1.035534,2.5 0,0.937635 0.372526,1.836992 1.035534,2.5 0.663008,0.663008 1.562365,1.035534 2.5,1.035534 z"
             id="m2a6cd2928e"
             style="stroke:#ff1493" />
        </defs>
        <g
           clip-path="url(#p9fe9990e0f)"
           id="g41635">
          <use
             style="fill:#ff1493;stroke:#ff1493"
             x="164.22447"
             xlink:href="#m2a6cd2928e"
             y="94.159256"
             id="use41633"
             width="100%"
             height="100%" />
        </g>
      </g>
      <g
         id="PathCollection_10">
        <defs
           id="defs41639">
          <path
             d="M 0,3.535534 C 0.937635,3.535534 1.836992,3.163008 2.5,2.5 3.163008,1.836992 3.535534,0.937635 3.535534,0 3.535534,-0.937635 3.163008,-1.836992 2.5,-2.5 1.836992,-3.163008 0.937635,-3.535534 0,-3.535534 c -0.937635,0 -1.836992,0.372526 -2.5,1.035534 -0.663008,0.663008 -1.035534,1.562365 -1.035534,2.5 0,0.937635 0.372526,1.836992 1.035534,2.5 0.663008,0.663008 1.562365,1.035534 2.5,1.035534 z"
             id="m13daad5b41"
             style="stroke:#ffd700" />
        </defs>
        <g
           clip-path="url(#p9fe9990e0f)"
           id="g41643">
          <use
             style="fill:#ffd700;stroke:#ffd700"
             x="223.62402"
             xlink:href="#m13daad5b41"
             y="88.359673"
             id="use41641"
             width="100%"
             height="100%" />
        </g>
      </g>
      <g
         id="PathCollection_11">
        <defs
           id="defs41647">
          <path
             d="M 0,3.535534 C 0.937635,3.535534 1.836992,3.163008 2.5,2.5 3.163008,1.836992 3.535534,0.937635 3.535534,0 3.535534,-0.937635 3.163008,-1.836992 2.5,-2.5 1.836992,-3.163008 0.937635,-3.535534 0,-3.535534 c -0.937635,0 -1.836992,0.372526 -2.5,1.035534 -0.663008,0.663008 -1.035534,1.562365 -1.035534,2.5 0,0.937635 0.372526,1.836992 1.035534,2.5 0.663008,0.663008 1.562365,1.035534 2.5,1.035534 z"
             id="m90ad3f3c42"
             style="stroke:#daa520" />
        </defs>
        <g
           clip-path="url(#p9fe9990e0f)"
           id="g41651">
          <use
             style="fill:#daa520;stroke:#daa520"
             x="261.0275"
             xlink:href="#m90ad3f3c42"
             y="79.981651"
             id="use41649"
             width="100%"
             height="100%" />
        </g>
      </g>
      <g
         id="matplotlib.axis_1">
        <g
           id="xtick_1">
          <g
             id="line2d_1">
            <defs
               id="defs41655">
              <path
                 d="M 0,0 V 3.5"
                 id="mf2dffe38c4"
                 style="stroke:#000000;stroke-width:0.8" />
            </defs>
            <g
               id="g41659">
              <use
                 style="stroke:#000000;stroke-width:0.8"
                 x="57.824299"
                 xlink:href="#mf2dffe38c4"
                 y="400.75089"
                 id="use41657"
                 width="100%"
                 height="100%" />
            </g>
          </g>
          <g
             id="text_1">
            <text
               style="font-style:normal;font-weight:normal;font-stretch:normal;font-size:14.4px;font-family:'DejaVu Sans';text-anchor:middle"
               x="57.824299"
               y="418.69263"
               id="text41662">0.0</text>
          </g>
        </g>
        <g
           id="xtick_2">
          <g
             id="line2d_2">
            <g
               id="g41668">
              <use
                 style="stroke:#000000;stroke-width:0.8"
                 x="154.8443"
                 xlink:href="#mf2dffe38c4"
                 y="400.75089"
                 id="use41666"
                 width="100%"
                 height="100%" />
            </g>
          </g>
          <g
             id="text_2">
            <text
               style="font-style:normal;font-weight:normal;font-stretch:normal;font-size:14.4px;font-family:'DejaVu Sans';text-anchor:middle"
               x="154.8443"
               y="418.69263"
               id="text41671">0.2</text>
          </g>
        </g>
        <g
           id="xtick_3">
          <g
             id="line2d_3">
            <g
               id="g41677">
              <use
                 style="stroke:#000000;stroke-width:0.8"
                 x="251.8643"
                 xlink:href="#mf2dffe38c4"
                 y="400.75089"
                 id="use41675"
                 width="100%"
                 height="100%" />
            </g>
          </g>
          <g
             id="text_3">
            <text
               style="font-style:normal;font-weight:normal;font-stretch:normal;font-size:14.4px;font-family:'DejaVu Sans';text-anchor:middle"
               x="251.8643"
               y="418.69263"
               id="text41680">0.4</text>
          </g>
        </g>
        <g
           id="xtick_4">
          <g
             id="line2d_4">
            <g
               id="g41686">
              <use
                 style="stroke:#000000;stroke-width:0.8"
                 x="348.88431"
                 xlink:href="#mf2dffe38c4"
                 y="400.75089"
                 id="use41684"
                 width="100%"
                 height="100%" />
            </g>
          </g>
          <g
             id="text_4">
            <text
               style="font-style:normal;font-weight:normal;font-stretch:normal;font-size:14.4px;font-family:'DejaVu Sans';text-anchor:middle"
               x="348.88431"
               y="418.69263"
               id="text41689">0.6</text>
          </g>
        </g>
        <g
           id="xtick_5">
          <g
             id="line2d_5">
            <g
               id="g41695">
              <use
                 style="stroke:#000000;stroke-width:0.8"
                 x="445.9043"
                 xlink:href="#mf2dffe38c4"
                 y="400.75089"
                 id="use41693"
                 width="100%"
                 height="100%" />
            </g>
          </g>
          <g
             id="text_5">
            <text
               style="font-style:normal;font-weight:normal;font-stretch:normal;font-size:14.4px;font-family:'DejaVu Sans';text-anchor:middle"
               x="445.9043"
               y="418.69263"
               id="text41698">0.8</text>
          </g>
        </g>
        <g
           id="text_6"
           transform="matrix(1.3773492,0,0,1.3773492,-95.172059,-160.63329)">
          <text
             style="font-style:normal;font-weight:normal;font-stretch:normal;font-size:17.28px;font-family:'DejaVu Sans';text-anchor:middle"
             x="251.8643"
             y="438.81747"
             id="text41702"><tspan
               sodipodi:role="line"
               id="tspan42233"
               x="251.8643"
               y="438.81747">Wordnet (K)</tspan></text>
        </g>
        <text
           xml:space="preserve"
           style="font-size:21.743px;line-height:1.25;font-family:sans-serif;stroke-width:1.13245;stroke-linecap:butt;stroke-linejoin:round"
           x="192.05104"
           y="341.30679"
           id="text14628"><tspan
             sodipodi:role="line"
             id="tspan14626"
             style="font-size:21.743px;stroke-width:1.13245"
             x="192.05104"
             y="341.30679">R=0.86, [0.69,0.97]</tspan></text>
      </g>
      <g
         id="matplotlib.axis_2">
        <g
           id="ytick_1">
          <g
             id="line2d_6">
            <defs
               id="defs41707">
              <path
                 d="M 0,0 H -3.5"
                 id="m0fa7614745"
                 style="stroke:#000000;stroke-width:0.8" />
            </defs>
            <g
               id="g41711">
              <use
                 style="stroke:#000000;stroke-width:0.8"
                 x="57.824299"
                 xlink:href="#m0fa7614745"
                 y="400.75089"
                 id="use41709"
                 width="100%"
                 height="100%" />
            </g>
          </g>
          <g
             id="text_7">
            <text
               style="font-style:normal;font-weight:normal;font-stretch:normal;font-size:14.4px;font-family:'DejaVu Sans';text-anchor:end"
               x="50.824299"
               y="406.22174"
               id="text41714">0.0</text>
          </g>
        </g>
        <g
           id="ytick_2">
          <g
             id="line2d_7">
            <g
               id="g41720">
              <use
                 style="stroke:#000000;stroke-width:0.8"
                 x="57.824299"
                 xlink:href="#m0fa7614745"
                 y="303.73087"
                 id="use41718"
                 width="100%"
                 height="100%" />
            </g>
          </g>
          <g
             id="text_8">
            <text
               style="font-style:normal;font-weight:normal;font-stretch:normal;font-size:14.4px;font-family:'DejaVu Sans';text-anchor:end"
               x="50.824299"
               y="309.20175"
               id="text41723">0.2</text>
          </g>
        </g>
        <g
           id="ytick_3">
          <g
             id="line2d_8">
            <g
               id="g41729">
              <use
                 style="stroke:#000000;stroke-width:0.8"
                 x="57.824299"
                 xlink:href="#m0fa7614745"
                 y="206.71088"
                 id="use41727"
                 width="100%"
                 height="100%" />
            </g>
          </g>
          <g
             id="text_9">
            <text
               style="font-style:normal;font-weight:normal;font-stretch:normal;font-size:14.4px;font-family:'DejaVu Sans';text-anchor:end"
               x="50.824299"
               y="212.18175"
               id="text41732">0.4</text>
          </g>
        </g>
        <g
           id="ytick_4">
          <g
             id="line2d_9">
            <g
               id="g41738">
              <use
                 style="stroke:#000000;stroke-width:0.8"
                 x="57.824299"
                 xlink:href="#m0fa7614745"
                 y="109.69087"
                 id="use41736"
                 width="100%"
                 height="100%" />
            </g>
          </g>
          <g
             id="text_10">
            <text
               style="font-style:normal;font-weight:normal;font-stretch:normal;font-size:14.4px;font-family:'DejaVu Sans';text-anchor:end"
               x="50.824299"
               y="115.16175"
               id="text41741">0.6</text>
          </g>
        </g>
        <g
           id="ytick_5">
          <g
             id="line2d_10">
            <g
               id="g41747">
              <use
                 style="stroke:#000000;stroke-width:0.8"
                 x="57.824299"
                 xlink:href="#m0fa7614745"
                 y="12.670875"
                 id="use41745"
                 width="100%"
                 height="100%" />
            </g>
          </g>
          <g
             id="text_11">
            <text
               style="font-style:normal;font-weight:normal;font-stretch:normal;font-size:14.4px;font-family:'DejaVu Sans';text-anchor:end"
               x="50.824299"
               y="18.14175"
               id="text41750">0.8</text>
          </g>
        </g>
      </g>
      <g
         id="LineCollection_1">
        <path
           clip-path="url(#p9fe9990e0f)"
           d="M 89.684816,131.84149 H 153.61107"
           style="fill:none;stroke:#ff0000;stroke-width:1.5"
           id="path41758" />
      </g>
      <g
         id="LineCollection_2">
        <path
           clip-path="url(#p9fe9990e0f)"
           d="M 121.64794,162.82034 V 100.86263"
           style="fill:none;stroke:#ff0000;stroke-width:1.5"
           id="path41761" />
      </g>
      <g
         id="LineCollection_3">
        <path
           clip-path="url(#p9fe9990e0f)"
           d="m 150.53466,116.5861 h 55.72878"
           style="fill:none;stroke:#7fffd4;stroke-width:1.5"
           id="path41764" />
      </g>
      <g
         id="LineCollection_4">
        <path
           clip-path="url(#p9fe9990e0f)"
           d="M 178.39905,144.28947 V 88.882724"
           style="fill:none;stroke:#7fffd4;stroke-width:1.5"
           id="path41767" />
      </g>
      <g
         id="LineCollection_5">
        <path
           clip-path="url(#p9fe9990e0f)"
           d="M 206.29552,40.044709 H 295.1231"
           style="fill:none;stroke:#40e0d0;stroke-width:1.5"
           id="path41770" />
      </g>
      <g
         id="LineCollection_6">
        <path
           clip-path="url(#p9fe9990e0f)"
           d="M 250.70931,68.558482 V 11.530935"
           style="fill:none;stroke:#40e0d0;stroke-width:1.5"
           id="path41773" />
      </g>
      <g
         id="LineCollection_7">
        <path
           clip-path="url(#p9fe9990e0f)"
           d="m 238.82357,48.937437 h 49.11674"
           style="fill:none;stroke:#20b2aa;stroke-width:1.5"
           id="path41776" />
      </g>
      <g
         id="LineCollection_8">
        <path
           clip-path="url(#p9fe9990e0f)"
           d="M 263.38194,77.271092 V 20.603781"
           style="fill:none;stroke:#20b2aa;stroke-width:1.5"
           id="path41779" />
      </g>
      <g
         id="LineCollection_9">
        <path
           clip-path="url(#p9fe9990e0f)"
           d="m 213.24413,56.819393 h 69.37093"
           style="fill:none;stroke:#48d1cc;stroke-width:1.5"
           id="path41782" />
      </g>
      <g
         id="LineCollection_10">
        <path
           clip-path="url(#p9fe9990e0f)"
           d="M 247.92959,86.663159 V 26.975626"
           style="fill:none;stroke:#48d1cc;stroke-width:1.5"
           id="path41785" />
      </g>
      <g
         id="LineCollection_11">
        <path
           clip-path="url(#p9fe9990e0f)"
           d="m 110.43309,103.2686 h 64.80567"
           style="fill:none;stroke:#ff00ff;stroke-width:1.5"
           id="path41788" />
      </g>
      <g
         id="LineCollection_12">
        <path
           clip-path="url(#p9fe9990e0f)"
           d="M 142.83592,130.9804 V 75.556795"
           style="fill:none;stroke:#ff00ff;stroke-width:1.5"
           id="path41791" />
      </g>
      <g
         id="LineCollection_13">
        <path
           clip-path="url(#p9fe9990e0f)"
           d="m 162.5452,80.077819 h 59.4347"
           style="fill:none;stroke:#da70d6;stroke-width:1.5"
           id="path41794" />
      </g>
      <g
         id="LineCollection_14">
        <path
           clip-path="url(#p9fe9990e0f)"
           d="M 192.26255,106.17765 V 53.97799"
           style="fill:none;stroke:#da70d6;stroke-width:1.5"
           id="path41797" />
      </g>
      <g
         id="LineCollection_15">
        <path
           clip-path="url(#p9fe9990e0f)"
           d="m 132.22726,100.69326 h 56.22237"
           style="fill:none;stroke:#c71585;stroke-width:1.5"
           id="path41800" />
      </g>
      <g
         id="LineCollection_16">
        <path
           clip-path="url(#p9fe9990e0f)"
           d="M 160.33844,127.30448 V 74.082035"
           style="fill:none;stroke:#c71585;stroke-width:1.5"
           id="path41803" />
      </g>
      <g
         id="LineCollection_17">
        <path
           clip-path="url(#p9fe9990e0f)"
           d="m 134.50463,94.159257 h 59.43969"
           style="fill:none;stroke:#ff1493;stroke-width:1.5"
           id="path41806" />
      </g>
      <g
         id="LineCollection_18">
        <path
           clip-path="url(#p9fe9990e0f)"
           d="M 164.22448,122.48673 V 65.831785"
           style="fill:none;stroke:#ff1493;stroke-width:1.5"
           id="path41809" />
      </g>
      <g
         id="LineCollection_19">
        <path
           clip-path="url(#p9fe9990e0f)"
           d="m 188.93591,88.359671 h 69.37621"
           style="fill:none;stroke:#ffd700;stroke-width:1.5"
           id="path41812" />
      </g>
      <g
         id="LineCollection_20">
        <path
           clip-path="url(#p9fe9990e0f)"
           d="M 223.62402,120.21472 V 56.504625"
           style="fill:none;stroke:#ffd700;stroke-width:1.5"
           id="path41815" />
      </g>
      <g
         id="LineCollection_21">
        <path
           clip-path="url(#p9fe9990e0f)"
           d="m 219.05893,79.98165 h 83.93716"
           style="fill:none;stroke:#daa520;stroke-width:1.5"
           id="path41818" />
      </g>
      <g
         id="LineCollection_22">
        <path
           clip-path="url(#p9fe9990e0f)"
           d="M 261.02751,112.34425 V 47.619049"
           style="fill:none;stroke:#daa520;stroke-width:1.5"
           id="path41821" />
      </g>
      <g
         id="line2d_11">
        <path
           clip-path="url(#p9fe9990e0f)"
           d="M 57.8243,400.75087 459.57517,-1"
           style="fill:none;stroke:#1f77b4;stroke-width:1.5;stroke-dasharray:5.55, 2.4;stroke-dashoffset:0"
           id="path41824" />
      </g>
      <g
         id="line2d_12">
        <path
           clip-path="url(#p9fe9990e0f)"
           d="M 121.64794,131.84149"
           style="fill:none;stroke:#ff0000;stroke-width:1.5;stroke-linecap:square"
           id="path41827" />
      </g>
      <g
         id="line2d_13">
        <path
           clip-path="url(#p9fe9990e0f)"
           d="M 178.39905,116.5861"
           style="fill:none;stroke:#7fffd4;stroke-width:1.5;stroke-linecap:square"
           id="path41830" />
      </g>
      <g
         id="line2d_14">
        <path
           clip-path="url(#p9fe9990e0f)"
           d="M 250.70931,40.044709"
           style="fill:none;stroke:#40e0d0;stroke-width:1.5;stroke-linecap:square"
           id="path41833" />
      </g>
      <g
         id="line2d_15">
        <path
           clip-path="url(#p9fe9990e0f)"
           d="M 263.38194,48.937437"
           style="fill:none;stroke:#20b2aa;stroke-width:1.5;stroke-linecap:square"
           id="path41836" />
      </g>
      <g
         id="line2d_16">
        <path
           clip-path="url(#p9fe9990e0f)"
           d="M 247.92959,56.819393"
           style="fill:none;stroke:#48d1cc;stroke-width:1.5;stroke-linecap:square"
           id="path41839" />
      </g>
      <g
         id="line2d_17">
        <path
           clip-path="url(#p9fe9990e0f)"
           d="M 142.83592,103.2686"
           style="fill:none;stroke:#ff00ff;stroke-width:1.5;stroke-linecap:square"
           id="path41842" />
      </g>
      <g
         id="line2d_18">
        <path
           clip-path="url(#p9fe9990e0f)"
           d="M 192.26255,80.077819"
           style="fill:none;stroke:#da70d6;stroke-width:1.5;stroke-linecap:square"
           id="path41845" />
      </g>
      <g
         id="line2d_19">
        <path
           clip-path="url(#p9fe9990e0f)"
           d="M 160.33844,100.69326"
           style="fill:none;stroke:#c71585;stroke-width:1.5;stroke-linecap:square"
           id="path41848" />
      </g>
      <g
         id="line2d_20">
        <path
           clip-path="url(#p9fe9990e0f)"
           d="M 164.22448,94.159257"
           style="fill:none;stroke:#ff1493;stroke-width:1.5;stroke-linecap:square"
           id="path41851" />
      </g>
      <g
         id="line2d_21">
        <path
           clip-path="url(#p9fe9990e0f)"
           d="M 223.62402,88.359671"
           style="fill:none;stroke:#ffd700;stroke-width:1.5;stroke-linecap:square"
           id="path41854" />
      </g>
      <g
         id="line2d_22">
        <path
           clip-path="url(#p9fe9990e0f)"
           d="M 261.02751,79.98165"
           style="fill:none;stroke:#daa520;stroke-width:1.5;stroke-linecap:square"
           id="path41857" />
      </g>
      <g
         id="patch_3">
        <path
           d="M 57.8243,400.75087 V 12.670875"
           style="fill:none;stroke:#000000;stroke-width:0.8;stroke-linecap:square;stroke-linejoin:miter"
           id="path41860" />
      </g>
      <g
         id="patch_4">
        <path
           d="m 57.8243,400.75087 h 388.08"
           style="fill:none;stroke:#000000;stroke-width:0.8;stroke-linecap:square;stroke-linejoin:miter"
           id="path41863" />
      </g>
    </g>
  </g>
  <defs
     id="defs41963">
    <clipPath
       id="p9fe9990e0f">
      <rect
         height="388.08"
         width="388.08"
         x="57.8243"
         y="12.670875"
         id="rect41960" />
    </clipPath>
  </defs>
</svg>
