<?xml version="1.0" encoding="UTF-8" standalone="no"?>
<svg
   height="449.611175pt"
   version="1.1"
   viewBox="0 0 618.9563 449.611175"
   width="618.9563pt"
   id="svg45604"
   sodipodi:docname="kappavI1_edges.svg"
   inkscape:version="1.1 (c4e8f9e, 2021-05-24)"
   xmlns:inkscape="http://www.inkscape.org/namespaces/inkscape"
   xmlns:sodipodi="http://sodipodi.sourceforge.net/DTD/sodipodi-0.dtd"
   xmlns:xlink="http://www.w3.org/1999/xlink"
   xmlns="http://www.w3.org/2000/svg"
   xmlns:svg="http://www.w3.org/2000/svg"
   xmlns:rdf="http://www.w3.org/1999/02/22-rdf-syntax-ns#"
   xmlns:cc="http://creativecommons.org/ns#"
   xmlns:dc="http://purl.org/dc/elements/1.1/">
  <sodipodi:namedview
     id="namedview45606"
     pagecolor="#ffffff"
     bordercolor="#cccccc"
     borderopacity="1"
     inkscape:pageshadow="0"
     inkscape:pageopacity="1"
     inkscape:pagecheckerboard="0"
     inkscape:document-units="pt"
     showgrid="false"
     inkscape:zoom="0.92413183"
     inkscape:cx="412.81989"
     inkscape:cy="299.74078"
     inkscape:window-width="1296"
     inkscape:window-height="782"
     inkscape:window-x="0"
     inkscape:window-y="23"
     inkscape:window-maximized="0"
     inkscape:current-layer="axes_1" />
  <metadata
     id="metadata45193">
    <rdf:RDF>
      <cc:Work>
        <dc:type
           rdf:resource="http://purl.org/dc/dcmitype/StillImage" />
        <dc:date>2021-08-02T17:28:08.085346</dc:date>
        <dc:format>image/svg+xml</dc:format>
        <dc:creator>
          <cc:Agent>
            <dc:title>Matplotlib v3.4.2, https://matplotlib.org/</dc:title>
          </cc:Agent>
        </dc:creator>
      </cc:Work>
    </rdf:RDF>
  </metadata>
  <defs
     id="defs45197">
    <style
       type="text/css"
       id="style45195">*{stroke-linecap:butt;stroke-linejoin:round;}</style>
  </defs>
  <g
     id="figure_1">
    <g
       id="axes_1"
       transform="matrix(0.74506641,0,0,0.74506641,1.8358676,1.8949614)">
      <g
         id="patch_2">
        <path
           d="m 57.8243,400.75087 h 388.08 V 12.670875 h -388.08 z"
           style="fill:#ffffff"
           id="path45202" />
      </g>
      <g
         id="PathCollection_1">
        <defs
           id="defs45206">
          <path
             d="M 0,3.535534 C 0.937635,3.535534 1.836992,3.163008 2.5,2.5 3.163008,1.836992 3.535534,0.937635 3.535534,0 3.535534,-0.937635 3.163008,-1.836992 2.5,-2.5 1.836992,-3.163008 0.937635,-3.535534 0,-3.535534 c -0.937635,0 -1.836992,0.372526 -2.5,1.035534 -0.663008,0.663008 -1.035534,1.562365 -1.035534,2.5 0,0.937635 0.372526,1.836992 1.035534,2.5 0.663008,0.663008 1.562365,1.035534 2.5,1.035534 z"
             id="m4b85d9651d"
             style="stroke:#ff0000" />
        </defs>
        <g
           clip-path="url(#pe06f0e2a26)"
           id="g45210">
          <use
             style="fill:#ff0000;stroke:#ff0000"
             x="74.767151"
             xlink:href="#m4b85d9651d"
             y="351.05286"
             id="use45208"
             width="100%"
             height="100%" />
        </g>
      </g>
      <g
         id="PathCollection_2">
        <defs
           id="defs45214">
          <path
             d="M 0,3.535534 C 0.937635,3.535534 1.836992,3.163008 2.5,2.5 3.163008,1.836992 3.535534,0.937635 3.535534,0 3.535534,-0.937635 3.163008,-1.836992 2.5,-2.5 1.836992,-3.163008 0.937635,-3.535534 0,-3.535534 c -0.937635,0 -1.836992,0.372526 -2.5,1.035534 -0.663008,0.663008 -1.035534,1.562365 -1.035534,2.5 0,0.937635 0.372526,1.836992 1.035534,2.5 0.663008,0.663008 1.562365,1.035534 2.5,1.035534 z"
             id="m25831b5f16"
             style="stroke:#7fffd4" />
        </defs>
        <g
           clip-path="url(#pe06f0e2a26)"
           id="g45218">
          <use
             style="fill:#7fffd4;stroke:#7fffd4"
             x="89.283234"
             xlink:href="#m25831b5f16"
             y="292.76041"
             id="use45216"
             width="100%"
             height="100%" />
        </g>
      </g>
      <g
         id="PathCollection_3">
        <defs
           id="defs45222">
          <path
             d="M 0,3.535534 C 0.937635,3.535534 1.836992,3.163008 2.5,2.5 3.163008,1.836992 3.535534,0.937635 3.535534,0 3.535534,-0.937635 3.163008,-1.836992 2.5,-2.5 1.836992,-3.163008 0.937635,-3.535534 0,-3.535534 c -0.937635,0 -1.836992,0.372526 -2.5,1.035534 -0.663008,0.663008 -1.035534,1.562365 -1.035534,2.5 0,0.937635 0.372526,1.836992 1.035534,2.5 0.663008,0.663008 1.562365,1.035534 2.5,1.035534 z"
             id="m35b9c5d3ed"
             style="stroke:#40e0d0" />
        </defs>
        <g
           clip-path="url(#pe06f0e2a26)"
           id="g45226">
          <use
             style="fill:#40e0d0;stroke:#40e0d0"
             x="82.934685"
             xlink:href="#m35b9c5d3ed"
             y="298.1535"
             id="use45224"
             width="100%"
             height="100%" />
        </g>
      </g>
      <g
         id="PathCollection_4">
        <defs
           id="defs45230">
          <path
             d="M 0,3.535534 C 0.937635,3.535534 1.836992,3.163008 2.5,2.5 3.163008,1.836992 3.535534,0.937635 3.535534,0 3.535534,-0.937635 3.163008,-1.836992 2.5,-2.5 1.836992,-3.163008 0.937635,-3.535534 0,-3.535534 c -0.937635,0 -1.836992,0.372526 -2.5,1.035534 -0.663008,0.663008 -1.035534,1.562365 -1.035534,2.5 0,0.937635 0.372526,1.836992 1.035534,2.5 0.663008,0.663008 1.562365,1.035534 2.5,1.035534 z"
             id="mc8a51715ca"
             style="stroke:#20b2aa" />
        </defs>
        <g
           clip-path="url(#pe06f0e2a26)"
           id="g45234">
          <use
             style="fill:#20b2aa;stroke:#20b2aa"
             x="76.568626"
             xlink:href="#mc8a51715ca"
             y="329.6178"
             id="use45232"
             width="100%"
             height="100%" />
        </g>
      </g>
      <g
         id="PathCollection_5">
        <defs
           id="defs45238">
          <path
             d="M 0,3.535534 C 0.937635,3.535534 1.836992,3.163008 2.5,2.5 3.163008,1.836992 3.535534,0.937635 3.535534,0 3.535534,-0.937635 3.163008,-1.836992 2.5,-2.5 1.836992,-3.163008 0.937635,-3.535534 0,-3.535534 c -0.937635,0 -1.836992,0.372526 -2.5,1.035534 -0.663008,0.663008 -1.035534,1.562365 -1.035534,2.5 0,0.937635 0.372526,1.836992 1.035534,2.5 0.663008,0.663008 1.562365,1.035534 2.5,1.035534 z"
             id="m007090f3ae"
             style="stroke:#48d1cc" />
        </defs>
        <g
           clip-path="url(#pe06f0e2a26)"
           id="g45242">
          <use
             style="fill:#48d1cc;stroke:#48d1cc"
             x="87.287041"
             xlink:href="#m007090f3ae"
             y="306.68808"
             id="use45240"
             width="100%"
             height="100%" />
        </g>
      </g>
      <g
         id="PathCollection_6">
        <defs
           id="defs45246">
          <path
             d="M 0,3.535534 C 0.937635,3.535534 1.836992,3.163008 2.5,2.5 3.163008,1.836992 3.535534,0.937635 3.535534,0 3.535534,-0.937635 3.163008,-1.836992 2.5,-2.5 1.836992,-3.163008 0.937635,-3.535534 0,-3.535534 c -0.937635,0 -1.836992,0.372526 -2.5,1.035534 -0.663008,0.663008 -1.035534,1.562365 -1.035534,2.5 0,0.937635 0.372526,1.836992 1.035534,2.5 0.663008,0.663008 1.562365,1.035534 2.5,1.035534 z"
             id="m63570e83e8"
             style="stroke:#ff00ff" />
        </defs>
        <g
           clip-path="url(#pe06f0e2a26)"
           id="g45250">
          <use
             style="fill:#ff00ff;stroke:#ff00ff"
             x="76.765411"
             xlink:href="#m63570e83e8"
             y="346.84097"
             id="use45248"
             width="100%"
             height="100%" />
        </g>
      </g>
      <g
         id="PathCollection_7">
        <defs
           id="defs45254">
          <path
             d="M 0,3.535534 C 0.937635,3.535534 1.836992,3.163008 2.5,2.5 3.163008,1.836992 3.535534,0.937635 3.535534,0 3.535534,-0.937635 3.163008,-1.836992 2.5,-2.5 1.836992,-3.163008 0.937635,-3.535534 0,-3.535534 c -0.937635,0 -1.836992,0.372526 -2.5,1.035534 -0.663008,0.663008 -1.035534,1.562365 -1.035534,2.5 0,0.937635 0.372526,1.836992 1.035534,2.5 0.663008,0.663008 1.562365,1.035534 2.5,1.035534 z"
             id="mf1fa0fa9c7"
             style="stroke:#da70d6" />
        </defs>
        <g
           clip-path="url(#pe06f0e2a26)"
           id="g45258">
          <use
             style="fill:#da70d6;stroke:#da70d6"
             x="80.858772"
             xlink:href="#mf1fa0fa9c7"
             y="299.19479"
             id="use45256"
             width="100%"
             height="100%" />
        </g>
      </g>
      <g
         id="PathCollection_8">
        <defs
           id="defs45262">
          <path
             d="M 0,3.535534 C 0.937635,3.535534 1.836992,3.163008 2.5,2.5 3.163008,1.836992 3.535534,0.937635 3.535534,0 3.535534,-0.937635 3.163008,-1.836992 2.5,-2.5 1.836992,-3.163008 0.937635,-3.535534 0,-3.535534 c -0.937635,0 -1.836992,0.372526 -2.5,1.035534 -0.663008,0.663008 -1.035534,1.562365 -1.035534,2.5 0,0.937635 0.372526,1.836992 1.035534,2.5 0.663008,0.663008 1.562365,1.035534 2.5,1.035534 z"
             id="ma319aec99f"
             style="stroke:#c71585" />
        </defs>
        <g
           clip-path="url(#pe06f0e2a26)"
           id="g45266">
          <use
             style="fill:#c71585;stroke:#c71585"
             x="87.146584"
             xlink:href="#ma319aec99f"
             y="312.7103"
             id="use45264"
             width="100%"
             height="100%" />
        </g>
      </g>
      <g
         id="PathCollection_9">
        <defs
           id="defs45270">
          <path
             d="M 0,3.535534 C 0.937635,3.535534 1.836992,3.163008 2.5,2.5 3.163008,1.836992 3.535534,0.937635 3.535534,0 3.535534,-0.937635 3.163008,-1.836992 2.5,-2.5 1.836992,-3.163008 0.937635,-3.535534 0,-3.535534 c -0.937635,0 -1.836992,0.372526 -2.5,1.035534 -0.663008,0.663008 -1.035534,1.562365 -1.035534,2.5 0,0.937635 0.372526,1.836992 1.035534,2.5 0.663008,0.663008 1.562365,1.035534 2.5,1.035534 z"
             id="mac5921d171"
             style="stroke:#ff1493" />
        </defs>
        <g
           clip-path="url(#pe06f0e2a26)"
           id="g45274">
          <use
             style="fill:#ff1493;stroke:#ff1493"
             x="78.802452"
             xlink:href="#mac5921d171"
             y="343.13028"
             id="use45272"
             width="100%"
             height="100%" />
        </g>
      </g>
      <g
         id="PathCollection_10">
        <defs
           id="defs45278">
          <path
             d="M 0,3.535534 C 0.937635,3.535534 1.836992,3.163008 2.5,2.5 3.163008,1.836992 3.535534,0.937635 3.535534,0 3.535534,-0.937635 3.163008,-1.836992 2.5,-2.5 1.836992,-3.163008 0.937635,-3.535534 0,-3.535534 c -0.937635,0 -1.836992,0.372526 -2.5,1.035534 -0.663008,0.663008 -1.035534,1.562365 -1.035534,2.5 0,0.937635 0.372526,1.836992 1.035534,2.5 0.663008,0.663008 1.562365,1.035534 2.5,1.035534 z"
             id="mef3208625e"
             style="stroke:#ffd700" />
        </defs>
        <g
           clip-path="url(#pe06f0e2a26)"
           id="g45282">
          <use
             style="fill:#ffd700;stroke:#ffd700"
             x="86.361977"
             xlink:href="#mef3208625e"
             y="332.95297"
             id="use45280"
             width="100%"
             height="100%" />
        </g>
      </g>
      <g
         id="PathCollection_11">
        <defs
           id="defs45286">
          <path
             d="M 0,3.535534 C 0.937635,3.535534 1.836992,3.163008 2.5,2.5 3.163008,1.836992 3.535534,0.937635 3.535534,0 3.535534,-0.937635 3.163008,-1.836992 2.5,-2.5 1.836992,-3.163008 0.937635,-3.535534 0,-3.535534 c -0.937635,0 -1.836992,0.372526 -2.5,1.035534 -0.663008,0.663008 -1.035534,1.562365 -1.035534,2.5 0,0.937635 0.372526,1.836992 1.035534,2.5 0.663008,0.663008 1.562365,1.035534 2.5,1.035534 z"
             id="m82209a63a9"
             style="stroke:#daa520" />
        </defs>
        <g
           clip-path="url(#pe06f0e2a26)"
           id="g45290">
          <use
             style="fill:#daa520;stroke:#daa520"
             x="86.873764"
             xlink:href="#m82209a63a9"
             y="328.89526"
             id="use45288"
             width="100%"
             height="100%" />
        </g>
      </g>
      <g
         id="matplotlib.axis_1">
        <g
           id="xtick_1">
          <g
             id="line2d_1">
            <defs
               id="defs45294">
              <path
                 d="M 0,0 V 3.5"
                 id="mef9e9dcce2"
                 style="stroke:#000000;stroke-width:0.8" />
            </defs>
            <g
               id="g45298">
              <use
                 style="stroke:#000000;stroke-width:0.8"
                 x="57.824299"
                 xlink:href="#mef9e9dcce2"
                 y="400.75089"
                 id="use45296"
                 width="100%"
                 height="100%" />
            </g>
          </g>
          <g
             id="text_1">
            <text
               style="font-style:normal;font-weight:normal;font-stretch:normal;font-size:14.4px;font-family:'DejaVu Sans';text-anchor:middle"
               x="57.824299"
               y="418.69263"
               id="text45301">0.0</text>
          </g>
        </g>
        <g
           id="xtick_2">
          <g
             id="line2d_2">
            <g
               id="g45307">
              <use
                 style="stroke:#000000;stroke-width:0.8"
                 x="154.8443"
                 xlink:href="#mef9e9dcce2"
                 y="400.75089"
                 id="use45305"
                 width="100%"
                 height="100%" />
            </g>
          </g>
          <g
             id="text_2">
            <text
               style="font-style:normal;font-weight:normal;font-stretch:normal;font-size:14.4px;font-family:'DejaVu Sans';text-anchor:middle"
               x="154.8443"
               y="418.69263"
               id="text45310">0.2</text>
          </g>
        </g>
        <g
           id="xtick_3">
          <g
             id="line2d_3">
            <g
               id="g45316">
              <use
                 style="stroke:#000000;stroke-width:0.8"
                 x="251.8643"
                 xlink:href="#mef9e9dcce2"
                 y="400.75089"
                 id="use45314"
                 width="100%"
                 height="100%" />
            </g>
          </g>
          <g
             id="text_3">
            <text
               style="font-style:normal;font-weight:normal;font-stretch:normal;font-size:14.4px;font-family:'DejaVu Sans';text-anchor:middle"
               x="251.8643"
               y="418.69263"
               id="text45319">0.4</text>
          </g>
        </g>
        <g
           id="xtick_4">
          <g
             id="line2d_4">
            <g
               id="g45325">
              <use
                 style="stroke:#000000;stroke-width:0.8"
                 x="348.88431"
                 xlink:href="#mef9e9dcce2"
                 y="400.75089"
                 id="use45323"
                 width="100%"
                 height="100%" />
            </g>
          </g>
          <g
             id="text_4">
            <text
               style="font-style:normal;font-weight:normal;font-stretch:normal;font-size:14.4px;font-family:'DejaVu Sans';text-anchor:middle"
               x="348.88431"
               y="418.69263"
               id="text45328">0.6</text>
          </g>
        </g>
        <g
           id="xtick_5">
          <g
             id="line2d_5">
            <g
               id="g45334">
              <use
                 style="stroke:#000000;stroke-width:0.8"
                 x="445.9043"
                 xlink:href="#mef9e9dcce2"
                 y="400.75089"
                 id="use45332"
                 width="100%"
                 height="100%" />
            </g>
          </g>
          <g
             id="text_5">
            <text
               style="font-style:normal;font-weight:normal;font-stretch:normal;font-size:14.4px;font-family:'DejaVu Sans';text-anchor:middle"
               x="445.9043"
               y="418.69263"
               id="text45337">0.8</text>
          </g>
        </g>
        <g
           id="text_6"
           transform="matrix(1.3773492,0,0,1.3773492,-95.172059,-160.63329)">
          <text
             style="font-style:normal;font-weight:normal;font-stretch:normal;font-size:17.28px;font-family:'DejaVu Sans';text-anchor:middle"
             x="251.8643"
             y="438.81747"
             id="text45341">Wordnet (K)</text>
        </g>
      </g>
      <g
         id="matplotlib.axis_2">
        <g
           id="ytick_1">
          <g
             id="line2d_6">
            <defs
               id="defs45346">
              <path
                 d="M 0,0 H -3.5"
                 id="mc5cc1e6a0a"
                 style="stroke:#000000;stroke-width:0.8" />
            </defs>
            <g
               id="g45350">
              <use
                 style="stroke:#000000;stroke-width:0.8"
                 x="57.824299"
                 xlink:href="#mc5cc1e6a0a"
                 y="400.75089"
                 id="use45348"
                 width="100%"
                 height="100%" />
            </g>
          </g>
          <g
             id="text_7">
            <text
               style="font-style:normal;font-weight:normal;font-stretch:normal;font-size:14.4px;font-family:'DejaVu Sans';text-anchor:end"
               x="50.824299"
               y="406.22174"
               id="text45353">0.0</text>
          </g>
        </g>
        <g
           id="ytick_2">
          <g
             id="line2d_7">
            <g
               id="g45359">
              <use
                 style="stroke:#000000;stroke-width:0.8"
                 x="57.824299"
                 xlink:href="#mc5cc1e6a0a"
                 y="303.73087"
                 id="use45357"
                 width="100%"
                 height="100%" />
            </g>
          </g>
          <g
             id="text_8">
            <text
               style="font-style:normal;font-weight:normal;font-stretch:normal;font-size:14.4px;font-family:'DejaVu Sans';text-anchor:end"
               x="50.824299"
               y="309.20175"
               id="text45362">0.2</text>
          </g>
        </g>
        <g
           id="ytick_3">
          <g
             id="line2d_8">
            <g
               id="g45368">
              <use
                 style="stroke:#000000;stroke-width:0.8"
                 x="57.824299"
                 xlink:href="#mc5cc1e6a0a"
                 y="206.71088"
                 id="use45366"
                 width="100%"
                 height="100%" />
            </g>
          </g>
          <g
             id="text_9">
            <text
               style="font-style:normal;font-weight:normal;font-stretch:normal;font-size:14.4px;font-family:'DejaVu Sans';text-anchor:end"
               x="50.824299"
               y="212.18175"
               id="text45371">0.4</text>
          </g>
        </g>
        <g
           id="ytick_4">
          <g
             id="line2d_9">
            <g
               id="g45377">
              <use
                 style="stroke:#000000;stroke-width:0.8"
                 x="57.824299"
                 xlink:href="#mc5cc1e6a0a"
                 y="109.69087"
                 id="use45375"
                 width="100%"
                 height="100%" />
            </g>
          </g>
          <g
             id="text_10">
            <text
               style="font-style:normal;font-weight:normal;font-stretch:normal;font-size:14.4px;font-family:'DejaVu Sans';text-anchor:end"
               x="50.824299"
               y="115.16175"
               id="text45380">0.6</text>
          </g>
        </g>
        <g
           id="ytick_5">
          <g
             id="line2d_10">
            <g
               id="g45386">
              <use
                 style="stroke:#000000;stroke-width:0.8"
                 x="57.824299"
                 xlink:href="#mc5cc1e6a0a"
                 y="12.670875"
                 id="use45384"
                 width="100%"
                 height="100%" />
            </g>
          </g>
          <g
             id="text_11">
            <text
               style="font-style:normal;font-weight:normal;font-stretch:normal;font-size:14.4px;font-family:'DejaVu Sans';text-anchor:end"
               x="50.824299"
               y="18.14175"
               id="text45389">0.8</text>
          </g>
        </g>
        <g
           id="text_12"
           transform="matrix(1.5593079,0,0,1.5593079,-12.080749,-114.83234)">
          <text
             style="font-style:normal;font-weight:normal;font-stretch:normal;font-size:17.28px;font-family:'DejaVu Sans';text-anchor:middle"
             transform="rotate(-90,20.3301,206.71087)"
             x="20.330099"
             y="206.71088"
             id="text45393"><tspan
               sodipodi:role="line"
               id="tspan46196"
               x="20.330099"
               y="206.71088">Wordnet (I1)</tspan></text>
        </g>
      </g>
      <g
         id="LineCollection_1">
        <path
           clip-path="url(#pe06f0e2a26)"
           d="M 63.860036,351.05286 H 85.674262"
           style="fill:none;stroke:#ff0000;stroke-width:1.5"
           id="path45397" />
      </g>
      <g
         id="LineCollection_2">
        <path
           clip-path="url(#pe06f0e2a26)"
           d="M 74.767149,385.9632 V 316.14251"
           style="fill:none;stroke:#ff0000;stroke-width:1.5"
           id="path45400" />
      </g>
      <g
         id="LineCollection_3">
        <path
           clip-path="url(#pe06f0e2a26)"
           d="M 73.172439,292.76042 H 105.39403"
           style="fill:none;stroke:#7fffd4;stroke-width:1.5"
           id="path45403" />
      </g>
      <g
         id="LineCollection_4">
        <path
           clip-path="url(#pe06f0e2a26)"
           d="M 89.283236,330.20101 V 255.31983"
           style="fill:none;stroke:#7fffd4;stroke-width:1.5"
           id="path45406" />
      </g>
      <g
         id="LineCollection_5">
        <path
           clip-path="url(#pe06f0e2a26)"
           d="M 70.683592,298.1535 H 95.18578"
           style="fill:none;stroke:#40e0d0;stroke-width:1.5"
           id="path45409" />
      </g>
      <g
         id="LineCollection_6">
        <path
           clip-path="url(#pe06f0e2a26)"
           d="M 82.934686,326.965 V 269.34199"
           style="fill:none;stroke:#40e0d0;stroke-width:1.5"
           id="path45412" />
      </g>
      <g
         id="LineCollection_7">
        <path
           clip-path="url(#pe06f0e2a26)"
           d="M 67.041423,329.61781 H 86.095835"
           style="fill:none;stroke:#20b2aa;stroke-width:1.5"
           id="path45415" />
      </g>
      <g
         id="LineCollection_8">
        <path
           clip-path="url(#pe06f0e2a26)"
           d="M 76.568629,356.04372 V 303.1919"
           style="fill:none;stroke:#20b2aa;stroke-width:1.5"
           id="path45418" />
      </g>
      <g
         id="LineCollection_9">
        <path
           clip-path="url(#pe06f0e2a26)"
           d="M 70.358294,306.68808 H 104.21578"
           style="fill:none;stroke:#48d1cc;stroke-width:1.5"
           id="path45421" />
      </g>
      <g
         id="LineCollection_10">
        <path
           clip-path="url(#pe06f0e2a26)"
           d="M 87.287037,334.38362 V 278.99254"
           style="fill:none;stroke:#48d1cc;stroke-width:1.5"
           id="path45424" />
      </g>
      <g
         id="LineCollection_11">
        <path
           clip-path="url(#pe06f0e2a26)"
           d="M 66.286415,346.84096 H 87.244404"
           style="fill:none;stroke:#ff00ff;stroke-width:1.5"
           id="path45427" />
      </g>
      <g
         id="LineCollection_12">
        <path
           clip-path="url(#pe06f0e2a26)"
           d="M 76.76541,378.2876 V 315.39433"
           style="fill:none;stroke:#ff00ff;stroke-width:1.5"
           id="path45430" />
      </g>
      <g
         id="LineCollection_13">
        <path
           clip-path="url(#pe06f0e2a26)"
           d="M 69.496854,299.1948 H 92.220689"
           style="fill:none;stroke:#da70d6;stroke-width:1.5"
           id="path45433" />
      </g>
      <g
         id="LineCollection_14">
        <path
           clip-path="url(#pe06f0e2a26)"
           d="M 80.858771,330.89094 V 267.49867"
           style="fill:none;stroke:#da70d6;stroke-width:1.5"
           id="path45436" />
      </g>
      <g
         id="LineCollection_15">
        <path
           clip-path="url(#pe06f0e2a26)"
           d="M 72.475795,312.71031 H 101.81738"
           style="fill:none;stroke:#c71585;stroke-width:1.5"
           id="path45439" />
      </g>
      <g
         id="LineCollection_16">
        <path
           clip-path="url(#pe06f0e2a26)"
           d="M 87.146587,341.12648 V 284.29414"
           style="fill:none;stroke:#c71585;stroke-width:1.5"
           id="path45442" />
      </g>
      <g
         id="LineCollection_17">
        <path
           clip-path="url(#pe06f0e2a26)"
           d="M 68.046255,343.13029 H 89.558646"
           style="fill:none;stroke:#ff1493;stroke-width:1.5"
           id="path45445" />
      </g>
      <g
         id="LineCollection_18">
        <path
           clip-path="url(#pe06f0e2a26)"
           d="M 78.80245,371.40433 V 314.85626"
           style="fill:none;stroke:#ff1493;stroke-width:1.5"
           id="path45448" />
      </g>
      <g
         id="LineCollection_19">
        <path
           clip-path="url(#pe06f0e2a26)"
           d="M 65.010016,332.95298 H 107.71394"
           style="fill:none;stroke:#ffd700;stroke-width:1.5"
           id="path45451" />
      </g>
      <g
         id="LineCollection_20">
        <path
           clip-path="url(#pe06f0e2a26)"
           d="M 86.361976,365.8902 V 300.01576"
           style="fill:none;stroke:#ffd700;stroke-width:1.5"
           id="path45454" />
      </g>
      <g
         id="LineCollection_21">
        <path
           clip-path="url(#pe06f0e2a26)"
           d="M 70.665946,328.89525 H 103.08159"
           style="fill:none;stroke:#daa520;stroke-width:1.5"
           id="path45457" />
      </g>
      <g
         id="LineCollection_22">
        <path
           clip-path="url(#pe06f0e2a26)"
           d="M 86.873767,361.05429 V 296.73622"
           style="fill:none;stroke:#daa520;stroke-width:1.5"
           id="path45460" />
      </g>
      <g
         id="line2d_11">
        <path
           clip-path="url(#pe06f0e2a26)"
           d="M 57.8243,400.75087 459.57517,-1"
           style="fill:none;stroke:#1f77b4;stroke-width:1.5;stroke-dasharray:5.55, 2.4;stroke-dashoffset:0"
           id="path45463" />
      </g>
      <g
         id="line2d_12">
        <path
           clip-path="url(#pe06f0e2a26)"
           d="M 74.767149,351.05286"
           style="fill:none;stroke:#ff0000;stroke-width:1.5;stroke-linecap:square"
           id="path45466" />
      </g>
      <g
         id="line2d_13">
        <path
           clip-path="url(#pe06f0e2a26)"
           d="M 89.283236,292.76042"
           style="fill:none;stroke:#7fffd4;stroke-width:1.5;stroke-linecap:square"
           id="path45469" />
      </g>
      <g
         id="line2d_14">
        <path
           clip-path="url(#pe06f0e2a26)"
           d="M 82.934686,298.1535"
           style="fill:none;stroke:#40e0d0;stroke-width:1.5;stroke-linecap:square"
           id="path45472" />
      </g>
      <g
         id="line2d_15">
        <path
           clip-path="url(#pe06f0e2a26)"
           d="M 76.568629,329.61781"
           style="fill:none;stroke:#20b2aa;stroke-width:1.5;stroke-linecap:square"
           id="path45475" />
      </g>
      <g
         id="line2d_16">
        <path
           clip-path="url(#pe06f0e2a26)"
           d="M 87.287037,306.68808"
           style="fill:none;stroke:#48d1cc;stroke-width:1.5;stroke-linecap:square"
           id="path45478" />
      </g>
      <g
         id="line2d_17">
        <path
           clip-path="url(#pe06f0e2a26)"
           d="M 76.76541,346.84096"
           style="fill:none;stroke:#ff00ff;stroke-width:1.5;stroke-linecap:square"
           id="path45481" />
      </g>
      <g
         id="line2d_18">
        <path
           clip-path="url(#pe06f0e2a26)"
           d="M 80.858771,299.1948"
           style="fill:none;stroke:#da70d6;stroke-width:1.5;stroke-linecap:square"
           id="path45484" />
      </g>
      <g
         id="line2d_19">
        <path
           clip-path="url(#pe06f0e2a26)"
           d="M 87.146587,312.71031"
           style="fill:none;stroke:#c71585;stroke-width:1.5;stroke-linecap:square"
           id="path45487" />
      </g>
      <g
         id="line2d_20">
        <path
           clip-path="url(#pe06f0e2a26)"
           d="M 78.80245,343.13029"
           style="fill:none;stroke:#ff1493;stroke-width:1.5;stroke-linecap:square"
           id="path45490" />
      </g>
      <g
         id="line2d_21">
        <path
           clip-path="url(#pe06f0e2a26)"
           d="M 86.361976,332.95298"
           style="fill:none;stroke:#ffd700;stroke-width:1.5;stroke-linecap:square"
           id="path45493" />
      </g>
      <g
         id="line2d_22">
        <path
           clip-path="url(#pe06f0e2a26)"
           d="M 86.873767,328.89525"
           style="fill:none;stroke:#daa520;stroke-width:1.5;stroke-linecap:square"
           id="path45496" />
      </g>
      <g
         id="patch_3">
        <path
           d="M 57.8243,400.75087 V 12.670875"
           style="fill:none;stroke:#000000;stroke-width:0.8;stroke-linecap:square;stroke-linejoin:miter"
           id="path45499" />
      </g>
      <g
         id="patch_4">
        <path
           d="m 57.8243,400.75087 h 388.08"
           style="fill:none;stroke:#000000;stroke-width:0.8;stroke-linecap:square;stroke-linejoin:miter"
           id="path45502" />
      </g>
      <text
         xml:space="preserve"
         style="font-size:21.743px;line-height:1.25;font-family:sans-serif;stroke-width:1.13245;stroke-linecap:butt;stroke-linejoin:round"
         x="192.70688"
         y="352.19946"
         id="text5771"><tspan
           sodipodi:role="line"
           style="font-size:21.743px;stroke-width:1.13245"
           x="192.70688"
           y="352.19946"
           id="tspan7019">R=0.65, [0.13,0.91]</tspan></text>
    </g>
  </g>
  <defs
     id="defs45602">
    <clipPath
       id="pe06f0e2a26">
      <rect
         height="388.08"
         width="388.08"
         x="57.8243"
         y="12.670875"
         id="rect45599" />
    </clipPath>
  </defs>
</svg>
