<?xml version="1.0" encoding="UTF-8" standalone="no"?>
<svg
   height="449.611175pt"
   version="1.1"
   viewBox="0 0 618.9563 449.611175"
   width="618.9563pt"
   id="svg5488"
   sodipodi:docname="kappavkappa_cue-conflict.svg"
   inkscape:version="1.1 (c4e8f9e, 2021-05-24)"
   xmlns:inkscape="http://www.inkscape.org/namespaces/inkscape"
   xmlns:sodipodi="http://sodipodi.sourceforge.net/DTD/sodipodi-0.dtd"
   xmlns:xlink="http://www.w3.org/1999/xlink"
   xmlns="http://www.w3.org/2000/svg"
   xmlns:svg="http://www.w3.org/2000/svg"
   xmlns:rdf="http://www.w3.org/1999/02/22-rdf-syntax-ns#"
   xmlns:cc="http://creativecommons.org/ns#"
   xmlns:dc="http://purl.org/dc/elements/1.1/">
  <sodipodi:namedview
     id="namedview5490"
     pagecolor="#ffffff"
     bordercolor="#cccccc"
     borderopacity="1"
     inkscape:pageshadow="0"
     inkscape:pageopacity="1"
     inkscape:pagecheckerboard="0"
     inkscape:document-units="pt"
     showgrid="false"
     inkscape:zoom="0.92413183"
     inkscape:cx="412.81989"
     inkscape:cy="299.74078"
     inkscape:window-width="1296"
     inkscape:window-height="782"
     inkscape:window-x="0"
     inkscape:window-y="23"
     inkscape:window-maximized="0"
     inkscape:current-layer="matplotlib.axis_1" />
  <metadata
     id="metadata5095">
    <rdf:RDF>
      <cc:Work>
        <dc:type
           rdf:resource="http://purl.org/dc/dcmitype/StillImage" />
        <dc:date>2021-08-02T16:39:50.813877</dc:date>
        <dc:format>image/svg+xml</dc:format>
        <dc:creator>
          <cc:Agent>
            <dc:title>Matplotlib v3.4.2, https://matplotlib.org/</dc:title>
          </cc:Agent>
        </dc:creator>
      </cc:Work>
    </rdf:RDF>
  </metadata>
  <defs
     id="defs5099">
    <style
       type="text/css"
       id="style5097">*{stroke-linecap:butt;stroke-linejoin:round;}</style>
  </defs>
  <g
     id="figure_1">
    <g
       id="axes_1"
       transform="matrix(0.7451146,0,0,0.7451146,1.8355192,1.9017718)">
      <g
         id="patch_2">
        <path
           d="m 57.8243,400.75087 h 388.08 V 12.670875 h -388.08 z"
           style="fill:#ffffff"
           id="path5104" />
      </g>
      <g
         id="PathCollection_1">
        <defs
           id="defs5108">
          <path
             d="M 0,3.535534 C 0.937635,3.535534 1.836992,3.163008 2.5,2.5 3.163008,1.836992 3.535534,0.937635 3.535534,0 3.535534,-0.937635 3.163008,-1.836992 2.5,-2.5 1.836992,-3.163008 0.937635,-3.535534 0,-3.535534 c -0.937635,0 -1.836992,0.372526 -2.5,1.035534 -0.663008,0.663008 -1.035534,1.562365 -1.035534,2.5 0,0.937635 0.372526,1.836992 1.035534,2.5 0.663008,0.663008 1.562365,1.035534 2.5,1.035534 z"
             id="mec500d634f"
             style="stroke:#ff0000" />
        </defs>
        <g
           clip-path="url(#pea57e1c402)"
           id="g5112">
          <use
             style="fill:#ff0000;stroke:#ff0000"
             x="88.136421"
             xlink:href="#mec500d634f"
             y="351.08377"
             id="use5110"
             width="100%"
             height="100%" />
        </g>
      </g>
      <g
         id="PathCollection_2">
        <defs
           id="defs5116">
          <path
             d="M 0,3.535534 C 0.937635,3.535534 1.836992,3.163008 2.5,2.5 3.163008,1.836992 3.535534,0.937635 3.535534,0 3.535534,-0.937635 3.163008,-1.836992 2.5,-2.5 1.836992,-3.163008 0.937635,-3.535534 0,-3.535534 c -0.937635,0 -1.836992,0.372526 -2.5,1.035534 -0.663008,0.663008 -1.035534,1.562365 -1.035534,2.5 0,0.937635 0.372526,1.836992 1.035534,2.5 0.663008,0.663008 1.562365,1.035534 2.5,1.035534 z"
             id="mcd6ccbceeb"
             style="stroke:#7fffd4" />
        </defs>
        <g
           clip-path="url(#pea57e1c402)"
           id="g5120">
          <use
             style="fill:#7fffd4;stroke:#7fffd4"
             x="110.07519"
             xlink:href="#mcd6ccbceeb"
             y="320.453"
             id="use5118"
             width="100%"
             height="100%" />
        </g>
      </g>
      <g
         id="PathCollection_3">
        <defs
           id="defs5124">
          <path
             d="M 0,3.535534 C 0.937635,3.535534 1.836992,3.163008 2.5,2.5 3.163008,1.836992 3.535534,0.937635 3.535534,0 3.535534,-0.937635 3.163008,-1.836992 2.5,-2.5 1.836992,-3.163008 0.937635,-3.535534 0,-3.535534 c -0.937635,0 -1.836992,0.372526 -2.5,1.035534 -0.663008,0.663008 -1.035534,1.562365 -1.035534,2.5 0,0.937635 0.372526,1.836992 1.035534,2.5 0.663008,0.663008 1.562365,1.035534 2.5,1.035534 z"
             id="md1f608129d"
             style="stroke:#40e0d0" />
        </defs>
        <g
           clip-path="url(#pea57e1c402)"
           id="g5128">
          <use
             style="fill:#40e0d0;stroke:#40e0d0"
             x="100.0454"
             xlink:href="#md1f608129d"
             y="314.83694"
             id="use5126"
             width="100%"
             height="100%" />
        </g>
      </g>
      <g
         id="PathCollection_4">
        <defs
           id="defs5132">
          <path
             d="M 0,3.535534 C 0.937635,3.535534 1.836992,3.163008 2.5,2.5 3.163008,1.836992 3.535534,0.937635 3.535534,0 3.535534,-0.937635 3.163008,-1.836992 2.5,-2.5 1.836992,-3.163008 0.937635,-3.535534 0,-3.535534 c -0.937635,0 -1.836992,0.372526 -2.5,1.035534 -0.663008,0.663008 -1.035534,1.562365 -1.035534,2.5 0,0.937635 0.372526,1.836992 1.035534,2.5 0.663008,0.663008 1.562365,1.035534 2.5,1.035534 z"
             id="mdb3645a1ca"
             style="stroke:#20b2aa" />
        </defs>
        <g
           clip-path="url(#pea57e1c402)"
           id="g5136">
          <use
             style="fill:#20b2aa;stroke:#20b2aa"
             x="116.47036"
             xlink:href="#mdb3645a1ca"
             y="327.03946"
             id="use5134"
             width="100%"
             height="100%" />
        </g>
      </g>
      <g
         id="PathCollection_5">
        <defs
           id="defs5140">
          <path
             d="M 0,3.535534 C 0.937635,3.535534 1.836992,3.163008 2.5,2.5 3.163008,1.836992 3.535534,0.937635 3.535534,0 3.535534,-0.937635 3.163008,-1.836992 2.5,-2.5 1.836992,-3.163008 0.937635,-3.535534 0,-3.535534 c -0.937635,0 -1.836992,0.372526 -2.5,1.035534 -0.663008,0.663008 -1.035534,1.562365 -1.035534,2.5 0,0.937635 0.372526,1.836992 1.035534,2.5 0.663008,0.663008 1.562365,1.035534 2.5,1.035534 z"
             id="m59435f0150"
             style="stroke:#48d1cc" />
        </defs>
        <g
           clip-path="url(#pea57e1c402)"
           id="g5144">
          <use
             style="fill:#48d1cc;stroke:#48d1cc"
             x="139.24951"
             xlink:href="#m59435f0150"
             y="303.95319"
             id="use5142"
             width="100%"
             height="100%" />
        </g>
      </g>
      <g
         id="PathCollection_6">
        <defs
           id="defs5148">
          <path
             d="M 0,3.535534 C 0.937635,3.535534 1.836992,3.163008 2.5,2.5 3.163008,1.836992 3.535534,0.937635 3.535534,0 3.535534,-0.937635 3.163008,-1.836992 2.5,-2.5 1.836992,-3.163008 0.937635,-3.535534 0,-3.535534 c -0.937635,0 -1.836992,0.372526 -2.5,1.035534 -0.663008,0.663008 -1.035534,1.562365 -1.035534,2.5 0,0.937635 0.372526,1.836992 1.035534,2.5 0.663008,0.663008 1.562365,1.035534 2.5,1.035534 z"
             id="m12bf925133"
             style="stroke:#ff00ff" />
        </defs>
        <g
           clip-path="url(#pea57e1c402)"
           id="g5152">
          <use
             style="fill:#ff00ff;stroke:#ff00ff"
             x="107.32548"
             xlink:href="#m12bf925133"
             y="346.63657"
             id="use5150"
             width="100%"
             height="100%" />
        </g>
      </g>
      <g
         id="PathCollection_7">
        <defs
           id="defs5156">
          <path
             d="M 0,3.535534 C 0.937635,3.535534 1.836992,3.163008 2.5,2.5 3.163008,1.836992 3.535534,0.937635 3.535534,0 3.535534,-0.937635 3.163008,-1.836992 2.5,-2.5 1.836992,-3.163008 0.937635,-3.535534 0,-3.535534 c -0.937635,0 -1.836992,0.372526 -2.5,1.035534 -0.663008,0.663008 -1.035534,1.562365 -1.035534,2.5 0,0.937635 0.372526,1.836992 1.035534,2.5 0.663008,0.663008 1.562365,1.035534 2.5,1.035534 z"
             id="m6dc19e44b2"
             style="stroke:#da70d6" />
        </defs>
        <g
           clip-path="url(#pea57e1c402)"
           id="g5160">
          <use
             style="fill:#da70d6;stroke:#da70d6"
             x="117.38142"
             xlink:href="#m6dc19e44b2"
             y="339.42081"
             id="use5158"
             width="100%"
             height="100%" />
        </g>
      </g>
      <g
         id="PathCollection_8">
        <defs
           id="defs5164">
          <path
             d="M 0,3.535534 C 0.937635,3.535534 1.836992,3.163008 2.5,2.5 3.163008,1.836992 3.535534,0.937635 3.535534,0 3.535534,-0.937635 3.163008,-1.836992 2.5,-2.5 1.836992,-3.163008 0.937635,-3.535534 0,-3.535534 c -0.937635,0 -1.836992,0.372526 -2.5,1.035534 -0.663008,0.663008 -1.035534,1.562365 -1.035534,2.5 0,0.937635 0.372526,1.836992 1.035534,2.5 0.663008,0.663008 1.562365,1.035534 2.5,1.035534 z"
             id="m5f40522583"
             style="stroke:#c71585" />
        </defs>
        <g
           clip-path="url(#pea57e1c402)"
           id="g5168">
          <use
             style="fill:#c71585;stroke:#c71585"
             x="112.58316"
             xlink:href="#m5f40522583"
             y="358.13467"
             id="use5166"
             width="100%"
             height="100%" />
        </g>
      </g>
      <g
         id="PathCollection_9">
        <defs
           id="defs5172">
          <path
             d="M 0,3.535534 C 0.937635,3.535534 1.836992,3.163008 2.5,2.5 3.163008,1.836992 3.535534,0.937635 3.535534,0 3.535534,-0.937635 3.163008,-1.836992 2.5,-2.5 1.836992,-3.163008 0.937635,-3.535534 0,-3.535534 c -0.937635,0 -1.836992,0.372526 -2.5,1.035534 -0.663008,0.663008 -1.035534,1.562365 -1.035534,2.5 0,0.937635 0.372526,1.836992 1.035534,2.5 0.663008,0.663008 1.562365,1.035534 2.5,1.035534 z"
             id="me99a8f90ed"
             style="stroke:#ff1493" />
        </defs>
        <g
           clip-path="url(#pea57e1c402)"
           id="g5176">
          <use
             style="fill:#ff1493;stroke:#ff1493"
             x="100.82712"
             xlink:href="#me99a8f90ed"
             y="337.26126"
             id="use5174"
             width="100%"
             height="100%" />
        </g>
      </g>
      <g
         id="PathCollection_10">
        <defs
           id="defs5180">
          <path
             d="M 0,3.535534 C 0.937635,3.535534 1.836992,3.163008 2.5,2.5 3.163008,1.836992 3.535534,0.937635 3.535534,0 3.535534,-0.937635 3.163008,-1.836992 2.5,-2.5 1.836992,-3.163008 0.937635,-3.535534 0,-3.535534 c -0.937635,0 -1.836992,0.372526 -2.5,1.035534 -0.663008,0.663008 -1.035534,1.562365 -1.035534,2.5 0,0.937635 0.372526,1.836992 1.035534,2.5 0.663008,0.663008 1.562365,1.035534 2.5,1.035534 z"
             id="m7a03b6525b"
             style="stroke:#ffd700" />
        </defs>
        <g
           clip-path="url(#pea57e1c402)"
           id="g5184">
          <use
             style="fill:#ffd700;stroke:#ffd700"
             x="121.24981"
             xlink:href="#m7a03b6525b"
             y="336.51294"
             id="use5182"
             width="100%"
             height="100%" />
        </g>
      </g>
      <g
         id="PathCollection_11">
        <defs
           id="defs5188">
          <path
             d="M 0,3.535534 C 0.937635,3.535534 1.836992,3.163008 2.5,2.5 3.163008,1.836992 3.535534,0.937635 3.535534,0 3.535534,-0.937635 3.163008,-1.836992 2.5,-2.5 1.836992,-3.163008 0.937635,-3.535534 0,-3.535534 c -0.937635,0 -1.836992,0.372526 -2.5,1.035534 -0.663008,0.663008 -1.035534,1.562365 -1.035534,2.5 0,0.937635 0.372526,1.836992 1.035534,2.5 0.663008,0.663008 1.562365,1.035534 2.5,1.035534 z"
             id="ma33aa691e9"
             style="stroke:#daa520" />
        </defs>
        <g
           clip-path="url(#pea57e1c402)"
           id="g5192">
          <use
             style="fill:#daa520;stroke:#daa520"
             x="99.846016"
             xlink:href="#ma33aa691e9"
             y="338.35208"
             id="use5190"
             width="100%"
             height="100%" />
        </g>
      </g>
      <g
         id="matplotlib.axis_1">
        <g
           id="xtick_1">
          <g
             id="line2d_1">
            <defs
               id="defs5196">
              <path
                 d="M 0,0 V 3.5"
                 id="m878df64d5b"
                 style="stroke:#000000;stroke-width:0.8" />
            </defs>
            <g
               id="g5200">
              <use
                 style="stroke:#000000;stroke-width:0.8"
                 x="57.824299"
                 xlink:href="#m878df64d5b"
                 y="400.75089"
                 id="use5198"
                 width="100%"
                 height="100%" />
            </g>
          </g>
          <g
             id="text_1">
            <text
               style="font-style:normal;font-weight:normal;font-stretch:normal;font-size:14.4px;font-family:'DejaVu Sans';text-anchor:middle"
               x="57.824299"
               y="418.69263"
               id="text5203">0.0</text>
          </g>
        </g>
        <g
           id="xtick_2">
          <g
             id="line2d_2">
            <g
               id="g5209">
              <use
                 style="stroke:#000000;stroke-width:0.8"
                 x="187.1843"
                 xlink:href="#m878df64d5b"
                 y="400.75089"
                 id="use5207"
                 width="100%"
                 height="100%" />
            </g>
          </g>
          <g
             id="text_2">
            <text
               style="font-style:normal;font-weight:normal;font-stretch:normal;font-size:14.4px;font-family:'DejaVu Sans';text-anchor:middle"
               x="187.1843"
               y="418.69263"
               id="text5212">0.2</text>
          </g>
        </g>
        <g
           id="xtick_3">
          <g
             id="line2d_3">
            <g
               id="g5218">
              <use
                 style="stroke:#000000;stroke-width:0.8"
                 x="316.54431"
                 xlink:href="#m878df64d5b"
                 y="400.75089"
                 id="use5216"
                 width="100%"
                 height="100%" />
            </g>
          </g>
          <g
             id="text_3">
            <text
               style="font-style:normal;font-weight:normal;font-stretch:normal;font-size:14.4px;font-family:'DejaVu Sans';text-anchor:middle"
               x="316.54431"
               y="418.69263"
               id="text5221">0.4</text>
          </g>
        </g>
        <g
           id="xtick_4">
          <g
             id="line2d_4">
            <g
               id="g5227">
              <use
                 style="stroke:#000000;stroke-width:0.8"
                 x="445.9043"
                 xlink:href="#m878df64d5b"
                 y="400.75089"
                 id="use5225"
                 width="100%"
                 height="100%" />
            </g>
          </g>
          <g
             id="text_4">
            <text
               style="font-style:normal;font-weight:normal;font-stretch:normal;font-size:14.4px;font-family:'DejaVu Sans';text-anchor:middle"
               x="445.9043"
               y="418.69263"
               id="text5230">0.6</text>
          </g>
        </g>
        <g
           id="text_5"
           transform="matrix(1.3772601,0,0,1.3772601,-97.166158,-160.59537)">
          <text
             style="font-style:normal;font-weight:normal;font-stretch:normal;font-size:17.28px;font-family:'DejaVu Sans';text-anchor:middle"
             x="251.8643"
             y="438.81747"
             id="text5234">Wordnet (K)</text>
        </g>
        <text
           xml:space="preserve"
           style="font-size:21.7416px;line-height:1.25;font-family:sans-serif;stroke-width:1.13238;stroke-linecap:butt;stroke-linejoin:round"
           x="185.5694"
           y="346.72156"
           id="text16744"><tspan
             sodipodi:role="line"
             id="tspan16742"
             style="font-size:21.7416px;stroke-width:1.13238"
             x="185.5694"
             y="346.72156">R=0.49, [-0.35,0.87]</tspan></text>
      </g>
      <g
         id="matplotlib.axis_2">
        <g
           id="ytick_1">
          <g
             id="line2d_5">
            <defs
               id="defs5239">
              <path
                 d="M 0,0 H -3.5"
                 id="m605b904253"
                 style="stroke:#000000;stroke-width:0.8" />
            </defs>
            <g
               id="g5243">
              <use
                 style="stroke:#000000;stroke-width:0.8"
                 x="57.824299"
                 xlink:href="#m605b904253"
                 y="400.75089"
                 id="use5241"
                 width="100%"
                 height="100%" />
            </g>
          </g>
          <g
             id="text_6">
            <text
               style="font-style:normal;font-weight:normal;font-stretch:normal;font-size:14.4px;font-family:'DejaVu Sans';text-anchor:end"
               x="50.824299"
               y="406.22174"
               id="text5246">0.0</text>
          </g>
        </g>
        <g
           id="ytick_2">
          <g
             id="line2d_6">
            <g
               id="g5252">
              <use
                 style="stroke:#000000;stroke-width:0.8"
                 x="57.824299"
                 xlink:href="#m605b904253"
                 y="271.39087"
                 id="use5250"
                 width="100%"
                 height="100%" />
            </g>
          </g>
          <g
             id="text_7">
            <text
               style="font-style:normal;font-weight:normal;font-stretch:normal;font-size:14.4px;font-family:'DejaVu Sans';text-anchor:end"
               x="50.824299"
               y="276.86176"
               id="text5255">0.2</text>
          </g>
        </g>
        <g
           id="ytick_3">
          <g
             id="line2d_7">
            <g
               id="g5261">
              <use
                 style="stroke:#000000;stroke-width:0.8"
                 x="57.824299"
                 xlink:href="#m605b904253"
                 y="142.03087"
                 id="use5259"
                 width="100%"
                 height="100%" />
            </g>
          </g>
          <g
             id="text_8">
            <text
               style="font-style:normal;font-weight:normal;font-stretch:normal;font-size:14.4px;font-family:'DejaVu Sans';text-anchor:end"
               x="50.824299"
               y="147.50175"
               id="text5264">0.4</text>
          </g>
        </g>
        <g
           id="ytick_4">
          <g
             id="line2d_8">
            <g
               id="g5270">
              <use
                 style="stroke:#000000;stroke-width:0.8"
                 x="57.824299"
                 xlink:href="#m605b904253"
                 y="12.670875"
                 id="use5268"
                 width="100%"
                 height="100%" />
            </g>
          </g>
          <g
             id="text_9">
            <text
               style="font-style:normal;font-weight:normal;font-stretch:normal;font-size:14.4px;font-family:'DejaVu Sans';text-anchor:end"
               x="50.824299"
               y="18.14175"
               id="text5273">0.6</text>
          </g>
        </g>
      </g>
      <g
         id="LineCollection_1">
        <path
           clip-path="url(#pea57e1c402)"
           d="M 74.264956,351.08376 H 102.00789"
           style="fill:none;stroke:#ff0000;stroke-width:1.5"
           id="path5281" />
      </g>
      <g
         id="LineCollection_2">
        <path
           clip-path="url(#pea57e1c402)"
           d="M 88.136422,371.49104 V 330.67649"
           style="fill:none;stroke:#ff0000;stroke-width:1.5"
           id="path5284" />
      </g>
      <g
         id="LineCollection_3">
        <path
           clip-path="url(#pea57e1c402)"
           d="M 87.363634,320.453 H 132.78674"
           style="fill:none;stroke:#7fffd4;stroke-width:1.5"
           id="path5287" />
      </g>
      <g
         id="LineCollection_4">
        <path
           clip-path="url(#pea57e1c402)"
           d="M 110.07519,356.53932 V 284.36669"
           style="fill:none;stroke:#7fffd4;stroke-width:1.5"
           id="path5290" />
      </g>
      <g
         id="LineCollection_5">
        <path
           clip-path="url(#pea57e1c402)"
           d="M 83.442933,314.83693 H 116.64788"
           style="fill:none;stroke:#40e0d0;stroke-width:1.5"
           id="path5293" />
      </g>
      <g
         id="LineCollection_6">
        <path
           clip-path="url(#pea57e1c402)"
           d="M 100.0454,350.47422 V 279.19964"
           style="fill:none;stroke:#40e0d0;stroke-width:1.5"
           id="path5296" />
      </g>
      <g
         id="LineCollection_7">
        <path
           clip-path="url(#pea57e1c402)"
           d="m 93.99308,327.03945 h 44.95455"
           style="fill:none;stroke:#20b2aa;stroke-width:1.5"
           id="path5299" />
      </g>
      <g
         id="LineCollection_8">
        <path
           clip-path="url(#pea57e1c402)"
           d="M 116.47036,361.1082 V 292.97069"
           style="fill:none;stroke:#20b2aa;stroke-width:1.5"
           id="path5302" />
      </g>
      <g
         id="LineCollection_9">
        <path
           clip-path="url(#pea57e1c402)"
           d="m 109.43031,303.95317 h 59.63842"
           style="fill:none;stroke:#48d1cc;stroke-width:1.5"
           id="path5305" />
      </g>
      <g
         id="LineCollection_10">
        <path
           clip-path="url(#pea57e1c402)"
           d="M 139.24952,337.79754 V 270.10881"
           style="fill:none;stroke:#48d1cc;stroke-width:1.5"
           id="path5308" />
      </g>
      <g
         id="LineCollection_11">
        <path
           clip-path="url(#pea57e1c402)"
           d="M 91.790606,346.63656 H 122.86036"
           style="fill:none;stroke:#ff00ff;stroke-width:1.5"
           id="path5311" />
      </g>
      <g
         id="LineCollection_12">
        <path
           clip-path="url(#pea57e1c402)"
           d="M 107.32548,371.92224 V 321.35088"
           style="fill:none;stroke:#ff00ff;stroke-width:1.5"
           id="path5314" />
      </g>
      <g
         id="LineCollection_13">
        <path
           clip-path="url(#pea57e1c402)"
           d="M 98.861427,339.4208 H 135.90142"
           style="fill:none;stroke:#da70d6;stroke-width:1.5"
           id="path5317" />
      </g>
      <g
         id="LineCollection_14">
        <path
           clip-path="url(#pea57e1c402)"
           d="M 117.38142,368.1439 V 310.6977"
           style="fill:none;stroke:#da70d6;stroke-width:1.5"
           id="path5320" />
      </g>
      <g
         id="LineCollection_15">
        <path
           clip-path="url(#pea57e1c402)"
           d="M 96.492497,358.13468 H 128.67382"
           style="fill:none;stroke:#c71585;stroke-width:1.5"
           id="path5323" />
      </g>
      <g
         id="LineCollection_16">
        <path
           clip-path="url(#pea57e1c402)"
           d="M 112.58316,385.01862 V 331.25075"
           style="fill:none;stroke:#c71585;stroke-width:1.5"
           id="path5326" />
      </g>
      <g
         id="LineCollection_17">
        <path
           clip-path="url(#pea57e1c402)"
           d="M 84.780575,337.26125 H 116.87366"
           style="fill:none;stroke:#ff1493;stroke-width:1.5"
           id="path5329" />
      </g>
      <g
         id="LineCollection_18">
        <path
           clip-path="url(#pea57e1c402)"
           d="M 100.82712,364.45871 V 310.0638"
           style="fill:none;stroke:#ff1493;stroke-width:1.5"
           id="path5332" />
      </g>
      <g
         id="LineCollection_19">
        <path
           clip-path="url(#pea57e1c402)"
           d="M 97.473016,336.51295 H 145.0266"
           style="fill:none;stroke:#ffd700;stroke-width:1.5"
           id="path5335" />
      </g>
      <g
         id="LineCollection_20">
        <path
           clip-path="url(#pea57e1c402)"
           d="M 121.24981,364.5499 V 308.476"
           style="fill:none;stroke:#ffd700;stroke-width:1.5"
           id="path5338" />
      </g>
      <g
         id="LineCollection_21">
        <path
           clip-path="url(#pea57e1c402)"
           d="M 83.520817,338.35209 H 116.17121"
           style="fill:none;stroke:#daa520;stroke-width:1.5"
           id="path5341" />
      </g>
      <g
         id="LineCollection_22">
        <path
           clip-path="url(#pea57e1c402)"
           d="m 99.846014,366.03979 v -55.3754"
           style="fill:none;stroke:#daa520;stroke-width:1.5"
           id="path5344" />
      </g>
      <g
         id="line2d_9">
        <path
           clip-path="url(#pea57e1c402)"
           d="M 57.8243,400.75087 459.57517,-1"
           style="fill:none;stroke:#1f77b4;stroke-width:1.5;stroke-dasharray:5.55, 2.4;stroke-dashoffset:0"
           id="path5347" />
      </g>
      <g
         id="line2d_10">
        <path
           clip-path="url(#pea57e1c402)"
           d="M 88.136422,351.08376"
           style="fill:none;stroke:#ff0000;stroke-width:1.5;stroke-linecap:square"
           id="path5350" />
      </g>
      <g
         id="line2d_11">
        <path
           clip-path="url(#pea57e1c402)"
           d="M 110.07519,320.453"
           style="fill:none;stroke:#7fffd4;stroke-width:1.5;stroke-linecap:square"
           id="path5353" />
      </g>
      <g
         id="line2d_12">
        <path
           clip-path="url(#pea57e1c402)"
           d="M 100.0454,314.83693"
           style="fill:none;stroke:#40e0d0;stroke-width:1.5;stroke-linecap:square"
           id="path5356" />
      </g>
      <g
         id="line2d_13">
        <path
           clip-path="url(#pea57e1c402)"
           d="M 116.47036,327.03945"
           style="fill:none;stroke:#20b2aa;stroke-width:1.5;stroke-linecap:square"
           id="path5359" />
      </g>
      <g
         id="line2d_14">
        <path
           clip-path="url(#pea57e1c402)"
           d="M 139.24952,303.95317"
           style="fill:none;stroke:#48d1cc;stroke-width:1.5;stroke-linecap:square"
           id="path5362" />
      </g>
      <g
         id="line2d_15">
        <path
           clip-path="url(#pea57e1c402)"
           d="M 107.32548,346.63656"
           style="fill:none;stroke:#ff00ff;stroke-width:1.5;stroke-linecap:square"
           id="path5365" />
      </g>
      <g
         id="line2d_16">
        <path
           clip-path="url(#pea57e1c402)"
           d="M 117.38142,339.4208"
           style="fill:none;stroke:#da70d6;stroke-width:1.5;stroke-linecap:square"
           id="path5368" />
      </g>
      <g
         id="line2d_17">
        <path
           clip-path="url(#pea57e1c402)"
           d="M 112.58316,358.13468"
           style="fill:none;stroke:#c71585;stroke-width:1.5;stroke-linecap:square"
           id="path5371" />
      </g>
      <g
         id="line2d_18">
        <path
           clip-path="url(#pea57e1c402)"
           d="M 100.82712,337.26125"
           style="fill:none;stroke:#ff1493;stroke-width:1.5;stroke-linecap:square"
           id="path5374" />
      </g>
      <g
         id="line2d_19">
        <path
           clip-path="url(#pea57e1c402)"
           d="M 121.24981,336.51295"
           style="fill:none;stroke:#ffd700;stroke-width:1.5;stroke-linecap:square"
           id="path5377" />
      </g>
      <g
         id="line2d_20">
        <path
           clip-path="url(#pea57e1c402)"
           d="M 99.846014,338.35209"
           style="fill:none;stroke:#daa520;stroke-width:1.5;stroke-linecap:square"
           id="path5380" />
      </g>
      <g
         id="patch_3">
        <path
           d="M 57.8243,400.75087 V 12.670875"
           style="fill:none;stroke:#000000;stroke-width:0.8;stroke-linecap:square;stroke-linejoin:miter"
           id="path5383" />
      </g>
      <g
         id="patch_4">
        <path
           d="m 57.8243,400.75087 h 388.08"
           style="fill:none;stroke:#000000;stroke-width:0.8;stroke-linecap:square;stroke-linejoin:miter"
           id="path5386" />
      </g>
    </g>
  </g>
  <defs
     id="defs5486">
    <clipPath
       id="pea57e1c402">
      <rect
         height="388.08"
         width="388.08"
         x="57.8243"
         y="12.670875"
         id="rect5483" />
    </clipPath>
  </defs>
</svg>
